<svg xmlns="http://www.w3.org/2000/svg" width="26" height="26" viewBox="0 0 26 26">
    <path
        d="M18.0861 10.1261C18.1445 10.067 18.2131 10.0208 18.2882 9.99019C18.3632 9.95953 18.4431 9.94501 18.5234 9.94744C18.6037 9.94987 18.6827 9.96921 18.756 10.0044C18.8293 10.0395 18.8954 10.0898 18.9506 10.1523C19.0058 10.2148 19.0489 10.2884 19.0775 10.3687C19.1061 10.4491 19.1197 10.5347 19.1174 10.6207C19.1152 10.7067 19.0971 10.7914 19.0643 10.8699C19.0315 10.9484 18.9845 11.0192 18.9262 11.0783L13.4235 16.6445C13.31 16.7595 13.1597 16.8235 13.0035 16.8235C12.8472 16.8235 12.6969 16.7595 12.5834 16.6445L7.08016 11.0783C7.02052 11.0196 6.97235 10.9488 6.93846 10.87C6.90457 10.7912 6.88564 10.706 6.88277 10.6193C6.87989 10.5326 6.89313 10.4461 6.92171 10.3649C6.95029 10.2838 6.99364 10.2095 7.04925 10.1464C7.10486 10.0833 7.17162 10.0327 7.24565 9.99752C7.31968 9.96231 7.3995 9.94321 7.48048 9.94132C7.56145 9.93943 7.64198 9.95479 7.71736 9.98651C7.79275 10.0182 7.8615 10.0657 7.91962 10.1261L13.0035 15.268L18.0861 10.1261Z" />
</svg>