<svg xmlns="http://www.w3.org/2000/svg" width="23" height="24" viewBox="0 0 23 24">
    <path fill-rule="evenodd" clip-rule="evenodd"
        d="M19.6416 12C19.6416 12.1648 19.5739 12.3223 19.4542 12.4356L14.7042 16.9356C14.4637 17.1635 14.0839 17.1532 13.856 16.9127C13.6281 16.6721 13.6384 16.2924 13.879 16.0645L17.5359 12.6L7.95827 12.6C7.6269 12.6 7.35827 12.3314 7.35827 12C7.35827 11.6687 7.6269 11.4 7.95827 11.4L17.5359 11.4L13.879 7.9356C13.6384 7.7077 13.6281 7.32794 13.856 7.08738C14.0839 6.84682 14.4637 6.83656 14.7042 7.06445L19.4542 11.5645C19.5739 11.6778 19.6416 11.8353 19.6416 12Z" />
</svg>