<svg xmlns="http://www.w3.org/2000/svg" width="28" height="28" viewBox="0 0 28 28">
    <path
        d="M5.99984 7H12.6665C13.0201 7 13.3593 7.1475 13.6093 7.41005C13.8594 7.6726 13.9998 8.0287 13.9998 8.4C13.9998 8.7713 13.8594 9.1274 13.6093 9.38995C13.3593 9.6525 13.0201 9.8 12.6665 9.8H5.99984C5.64622 9.8 5.30708 9.6525 5.05703 9.38995C4.80698 9.1274 4.6665 8.7713 4.6665 8.4C4.6665 8.0287 4.80698 7.6726 5.05703 7.41005C5.30708 7.1475 5.64622 7 5.99984 7ZM15.3332 18.2H21.9998C22.3535 18.2 22.6926 18.3475 22.9426 18.6101C23.1927 18.8726 23.3332 19.2287 23.3332 19.6C23.3332 19.9713 23.1927 20.3274 22.9426 20.5899C22.6926 20.8525 22.3535 21 21.9998 21H15.3332C14.9795 21 14.6404 20.8525 14.3904 20.5899C14.1403 20.3274 13.9998 19.9713 13.9998 19.6C13.9998 19.2287 14.1403 18.8726 14.3904 18.6101C14.6404 18.3475 14.9795 18.2 15.3332 18.2ZM5.99984 12.6H21.9998C22.3535 12.6 22.6926 12.7475 22.9426 13.0101C23.1927 13.2726 23.3332 13.6287 23.3332 14C23.3332 14.3713 23.1927 14.7274 22.9426 14.9899C22.6926 15.2525 22.3535 15.4 21.9998 15.4H5.99984C5.64622 15.4 5.30708 15.2525 5.05703 14.9899C4.80698 14.7274 4.6665 14.3713 4.6665 14C4.6665 13.6287 4.80698 13.2726 5.05703 13.0101C5.30708 12.7475 5.64622 12.6 5.99984 12.6Z"
        fill="#A2A5C3" />
    <path fill-rule="evenodd" clip-rule="evenodd"
        d="M12.6665 7.6H5.99984C5.81505 7.6 5.63155 7.6768 5.49151 7.82384C5.35053 7.97188 5.2665 8.17864 5.2665 8.4C5.2665 8.62136 5.35053 8.82812 5.49151 8.97616C5.63155 9.1232 5.81505 9.2 5.99984 9.2H12.6665C12.8513 9.2 13.0348 9.1232 13.1748 8.97616C13.3158 8.82812 13.3998 8.62136 13.3998 8.4C13.3998 8.17864 13.3158 7.97188 13.1748 7.82384C13.0348 7.6768 12.8513 7.6 12.6665 7.6ZM21.9998 18.8H15.3332C15.1484 18.8 14.9649 18.8768 14.8248 19.0238C14.6839 19.1719 14.5998 19.3786 14.5998 19.6C14.5998 19.8214 14.6839 20.0281 14.8248 20.1762C14.9649 20.3232 15.1484 20.4 15.3332 20.4H21.9998C22.1846 20.4 22.3681 20.3232 22.5082 20.1762C22.6491 20.0281 22.7332 19.8214 22.7332 19.6C22.7332 19.3786 22.6491 19.1719 22.5082 19.0238C22.3681 18.8768 22.1846 18.8 21.9998 18.8ZM21.9998 13.2H5.99984C5.81505 13.2 5.63155 13.2768 5.49151 13.4238C5.35053 13.5719 5.2665 13.7786 5.2665 14C5.2665 14.2214 5.35053 14.4281 5.49151 14.5762C5.63155 14.7232 5.81505 14.8 5.99984 14.8H21.9998C22.1846 14.8 22.3681 14.7232 22.5082 14.5762C22.6491 14.4281 22.7332 14.2214 22.7332 14C22.7332 13.7786 22.6491 13.5719 22.5082 13.4238C22.3681 13.2768 22.1846 13.2 21.9998 13.2ZM12.6665 7H5.99984C5.64622 7 5.30708 7.1475 5.05703 7.41005C4.80698 7.6726 4.6665 8.0287 4.6665 8.4C4.6665 8.7713 4.80698 9.1274 5.05703 9.38995C5.30708 9.6525 5.64622 9.8 5.99984 9.8H12.6665C13.0201 9.8 13.3593 9.6525 13.6093 9.38995C13.8594 9.1274 13.9998 8.7713 13.9998 8.4C13.9998 8.0287 13.8594 7.6726 13.6093 7.41005C13.3593 7.1475 13.0201 7 12.6665 7ZM21.9998 18.2H15.3332C14.9795 18.2 14.6404 18.3475 14.3904 18.6101C14.1403 18.8726 13.9998 19.2287 13.9998 19.6C13.9998 19.9713 14.1403 20.3274 14.3904 20.5899C14.6404 20.8525 14.9795 21 15.3332 21H21.9998C22.3535 21 22.6926 20.8525 22.9426 20.5899C23.1927 20.3274 23.3332 19.9713 23.3332 19.6C23.3332 19.2287 23.1927 18.8726 22.9426 18.6101C22.6926 18.3475 22.3535 18.2 21.9998 18.2ZM21.9998 12.6H5.99984C5.64622 12.6 5.30708 12.7475 5.05703 13.0101C4.80698 13.2726 4.6665 13.6287 4.6665 14C4.6665 14.3713 4.80698 14.7274 5.05703 14.9899C5.30708 15.2525 5.64622 15.4 5.99984 15.4H21.9998C22.3535 15.4 22.6926 15.2525 22.9426 14.9899C23.1927 14.7274 23.3332 14.3713 23.3332 14C23.3332 13.6287 23.1927 13.2726 22.9426 13.0101C22.6926 12.7475 22.3535 12.6 21.9998 12.6Z"
        fill="white" />
</svg>