<svg xmlns="http://www.w3.org/2000/svg" width="28" height="28" viewBox="0 0 28 28" fill="none">
    <path fill-rule="evenodd" clip-rule="evenodd"
        d="M7.63666 7.63691C7.92956 7.34401 8.40443 7.34401 8.69732 7.63691L14.0003 12.9399L19.3033 7.63691C19.5962 7.34401 20.0711 7.34401 20.364 7.63691C20.6569 7.9298 20.6569 8.40467 20.364 8.69757L15.061 14.0006L20.364 19.3036C20.6569 19.5965 20.6569 20.0713 20.364 20.3642C20.0711 20.6571 19.5962 20.6571 19.3033 20.3642L14.0003 15.0612L8.69732 20.3642C8.40443 20.6571 7.92956 20.6571 7.63666 20.3642C7.34377 20.0713 7.34377 19.5965 7.63666 19.3036L12.9397 14.0006L7.63666 8.69757C7.34377 8.40467 7.34377 7.9298 7.63666 7.63691Z"
        fill="white" />
</svg>