<svg xmlns="http://www.w3.org/2000/svg" width="17" height="17" viewBox="0 0 17 17">
    <path
        d="M6.37524 11.4745L3.89608 8.99536C3.83125 8.92974 3.75404 8.87764 3.66893 8.84208C3.58381 8.80653 3.49249 8.78822 3.40024 8.78822C3.308 8.78822 3.21668 8.80653 3.13156 8.84208C3.04645 8.87764 2.96924 8.92974 2.90441 8.99536C2.83879 9.06019 2.78669 9.1374 2.75113 9.22251C2.71558 9.30763 2.69727 9.39895 2.69727 9.49119C2.69727 9.58344 2.71558 9.67476 2.75113 9.75987C2.78669 9.84499 2.83879 9.9222 2.90441 9.98703L5.87233 12.9549C6.14858 13.2312 6.59483 13.2312 6.87108 12.9549L14.3794 5.45369C14.445 5.38886 14.4971 5.31166 14.5327 5.22654C14.5682 5.14143 14.5866 5.0501 14.5866 4.95786C14.5866 4.86562 14.5682 4.77429 14.5327 4.68918C14.4971 4.60407 14.445 4.52686 14.3794 4.46203C14.3146 4.39641 14.2374 4.34431 14.1523 4.30875C14.0671 4.27319 13.9758 4.25488 13.8836 4.25488C13.7913 4.25488 13.7 4.27319 13.6149 4.30875C13.5298 4.34431 13.4526 4.39641 13.3877 4.46203L6.37524 11.4745Z" />
</svg>