<svg width="32" height="32" viewBox="0 0 32 32" xmlns="http://www.w3.org/2000/svg">
    <path fill-rule="evenodd" clip-rule="evenodd"
        d="M8.80365 8.80365C9.09655 8.51076 9.57142 8.51076 9.86431 8.80365L16.0007 14.94L22.137 8.80365C22.4299 8.51076 22.9048 8.51076 23.1976 8.80365C23.4905 9.09655 23.4905 9.57142 23.1976 9.86431L17.0613 16.0007L23.1976 22.137C23.4905 22.4299 23.4905 22.9048 23.1976 23.1976C22.9048 23.4905 22.4299 23.4905 22.137 23.1976L16.0007 17.0613L9.86431 23.1976C9.57142 23.4905 9.09655 23.4905 8.80365 23.1976C8.51076 22.9048 8.51076 22.4299 8.80365 22.137L14.94 16.0007L8.80365 9.86431C8.51076 9.57142 8.51076 9.09655 8.80365 8.80365Z" />
</svg>