<svg xmlns="http://www.w3.org/2000/svg" width="28" height="28" viewBox="0 0 28 28">
    <path fill-rule="evenodd" clip-rule="evenodd"
        d="M14 3.91663C14.4142 3.91663 14.75 4.25241 14.75 4.66663V16.856L17.553 14.053C17.8459 13.7601 18.3208 13.7601 18.6137 14.053C18.9066 14.3459 18.9066 14.8207 18.6137 15.1136L14.5303 19.197C14.2374 19.4898 13.7626 19.4898 13.4697 19.197L9.38634 15.1136C9.09344 14.8207 9.09344 14.3459 9.38634 14.053C9.67923 13.7601 10.1541 13.7601 10.447 14.053L13.25 16.856V4.66663C13.25 4.25241 13.5858 3.91663 14 3.91663ZM6.25 23.3333C6.25 22.9191 6.58579 22.5833 7 22.5833H21C21.4142 22.5833 21.75 22.9191 21.75 23.3333C21.75 23.7475 21.4142 24.0833 21 24.0833H7C6.58579 24.0833 6.25 23.7475 6.25 23.3333Z" />
</svg>