<svg xmlns="http://www.w3.org/2000/svg" width="28" height="28" viewBox="0 0 28 28">
    <path
        d="M10.645 23.5805C10.9684 23.5805 11.2845 23.4847 11.5534 23.305C11.8222 23.1253 12.0318 22.87 12.1556 22.5712C12.2793 22.2725 12.3117 21.9437 12.2486 21.6266C12.1855 21.3094 12.0298 21.0181 11.8011 20.7894C11.5725 20.5608 11.2811 20.4051 10.964 20.342C10.6468 20.2789 10.3181 20.3113 10.0193 20.435C9.72057 20.5588 9.46521 20.7683 9.28556 21.0372C9.1059 21.3061 9.01001 21.6222 9.01001 21.9455C9.01067 22.379 9.18314 22.7945 9.48962 23.1009C9.7961 23.4074 10.2116 23.5799 10.645 23.5805ZM10.645 21.0605C10.82 21.0605 10.9912 21.1125 11.1367 21.2097C11.2822 21.3069 11.3957 21.4452 11.4626 21.6069C11.5296 21.7686 11.5472 21.9465 11.513 22.1182C11.4789 22.2899 11.3946 22.4476 11.2708 22.5713C11.147 22.6951 10.9893 22.7794 10.8177 22.8135C10.646 22.8477 10.468 22.8302 10.3063 22.7632C10.1446 22.6962 10.0064 22.5828 9.90916 22.4372C9.81191 22.2917 9.76001 22.1206 9.76001 21.9455C9.76001 21.7106 9.85317 21.4852 10.0191 21.3189C10.185 21.1525 10.4101 21.0587 10.645 21.058V21.0605Z" />
    <path
        d="M15.0676 23.5805C15.391 23.5805 15.7071 23.4847 15.976 23.305C16.2448 23.1253 16.4544 22.87 16.5782 22.5712C16.7019 22.2725 16.7343 21.9437 16.6712 21.6266C16.6081 21.3094 16.4524 21.0181 16.2237 20.7894C15.9951 20.5608 15.7037 20.4051 15.3866 20.342C15.0694 20.2789 14.7407 20.3113 14.4419 20.435C14.1432 20.5588 13.8878 20.7683 13.7082 21.0372C13.5285 21.3061 13.4326 21.6222 13.4326 21.9455C13.4333 22.379 13.6057 22.7945 13.9122 23.1009C14.2187 23.4074 14.6342 23.5799 15.0676 23.5805ZM15.0676 21.0605C15.2427 21.0605 15.4138 21.1125 15.5593 21.2097C15.7048 21.3069 15.8183 21.4452 15.8853 21.6069C15.9522 21.7686 15.9698 21.9465 15.9356 22.1182C15.9015 22.2899 15.8172 22.4476 15.6934 22.5713C15.5696 22.6951 15.4119 22.7794 15.2403 22.8135C15.0686 22.8477 14.8907 22.8302 14.7289 22.7632C14.5672 22.6962 14.429 22.5828 14.3318 22.4372C14.2345 22.2917 14.1826 22.1206 14.1826 21.9455C14.1826 21.7106 14.2758 21.4852 14.4417 21.3189C14.6076 21.1525 14.8327 21.0587 15.0676 21.058V21.0605Z" />
    <path
        d="M4.58496 21.9436C4.58496 22.267 4.68085 22.5831 4.86051 22.852C5.04016 23.1208 5.29552 23.3304 5.59427 23.4541C5.89303 23.5779 6.22177 23.6103 6.53893 23.5472C6.85609 23.4841 7.14742 23.3284 7.37608 23.0997C7.60474 22.8711 7.76046 22.5797 7.82354 22.2626C7.88663 21.9454 7.85425 21.6167 7.7305 21.3179C7.60675 21.0192 7.39719 20.7638 7.12832 20.5841C6.85944 20.4045 6.54333 20.3086 6.21996 20.3086C5.78653 20.3093 5.37105 20.4817 5.06457 20.7882C4.75809 21.0947 4.58562 21.5102 4.58496 21.9436ZM6.21996 21.0586C6.395 21.0586 6.5661 21.1105 6.71164 21.2077C6.85718 21.305 6.97061 21.4432 7.03759 21.6049C7.10458 21.7666 7.1221 21.9446 7.08796 22.1162C7.05381 22.2879 6.96952 22.4456 6.84575 22.5694C6.72198 22.6932 6.56429 22.7774 6.39262 22.8116C6.22094 22.8457 6.043 22.8282 5.88129 22.7612C5.71957 22.6942 5.58136 22.5808 5.48411 22.4353C5.38687 22.2897 5.33496 22.1186 5.33496 21.9436C5.33562 21.7091 5.42907 21.4844 5.5949 21.3185C5.76073 21.1527 5.98545 21.0593 6.21996 21.0586Z" />
    <path
        d="M23.6875 10.9502H23.63L21.03 4.88769C21.1802 4.58435 21.251 4.24784 21.2358 3.90967C21.2205 3.5715 21.1196 3.24275 20.9426 2.9542C20.7656 2.66565 20.5182 2.42676 20.2237 2.25989C19.9292 2.09301 19.5971 2.00363 19.2586 2.00011C18.9201 1.99658 18.5863 2.07904 18.2883 2.23974C17.9904 2.40044 17.7381 2.63414 17.5551 2.91894C17.3722 3.20374 17.2645 3.53032 17.2421 3.8681C17.2198 4.20587 17.2836 4.54379 17.4275 4.85019L12.99 8.81769H8.7575C8.65804 8.81769 8.56266 8.8572 8.49233 8.92753C8.42201 8.99786 8.3825 9.09324 8.3825 9.19269V11.4427H5.1775C5.07804 11.4427 4.98266 11.4822 4.91233 11.5525C4.84201 11.6229 4.8025 11.7182 4.8025 11.8177V16.8602C4.8025 16.9596 4.84201 17.055 4.91233 17.1254C4.98266 17.1957 5.07804 17.2352 5.1775 17.2352H6.77V18.4477H5.5C4.57174 18.4477 3.6815 18.8164 3.02513 19.4728C2.36875 20.1292 2 21.0194 2 21.9477C2 22.876 2.36875 23.7662 3.02513 24.4226C3.6815 25.0789 4.57174 25.4477 5.5 25.4477H15.79C16.7183 25.4477 17.6085 25.0789 18.2649 24.4226C18.9212 23.7662 19.29 22.876 19.29 21.9477C19.29 21.0194 18.9212 20.1292 18.2649 19.4728C17.6085 18.8164 16.7183 18.4477 15.79 18.4477H14.52V17.2352H15.85C15.9495 17.2352 16.0448 17.1957 16.1152 17.1254C16.1855 17.055 16.225 16.9596 16.225 16.8602V14.0752C16.2274 14.0198 16.2175 13.9646 16.1958 13.9136C16.1742 13.8625 16.1415 13.817 16.1 13.7802L13.7275 9.16519L17.87 5.47269C18.2227 5.80403 18.6836 5.99624 19.1672 6.01371C19.6508 6.03118 20.1243 5.87272 20.5 5.56769L22.8875 11.1302C22.5229 11.2865 22.2131 11.5477 21.9973 11.8805C21.7815 12.2134 21.6696 12.6029 21.6758 12.9995C21.682 13.3961 21.8059 13.7819 22.0319 14.1079C22.2579 14.4339 22.5757 14.6853 22.945 14.8302L19.7325 18.2502C19.6845 18.3013 19.6518 18.3648 19.6381 18.4336C19.6244 18.5024 19.6302 18.5736 19.655 18.6392C19.6797 18.7048 19.7223 18.7622 19.778 18.8048C19.8337 18.8474 19.9002 18.8735 19.97 18.8802L23.935 19.2727H24.07C24.4347 19.2727 24.7844 19.1278 25.0423 18.87C25.3001 18.6121 25.445 18.2624 25.445 17.8977V13.9727C25.4458 13.9585 25.4458 13.9443 25.445 13.9302C25.617 13.6253 25.7059 13.2806 25.7029 12.9306C25.6999 12.5806 25.6051 12.2374 25.428 11.9355C25.2508 11.6336 24.9975 11.3835 24.6934 11.2101C24.3893 11.0368 24.045 10.9463 23.695 10.9477L23.6875 10.9502ZM13.1 9.56769L15.215 13.7002H10.35L9.1325 11.7227V9.56769H13.1ZM18.5425 21.9427C18.5425 22.3038 18.4714 22.6614 18.3332 22.9951C18.195 23.3287 17.9924 23.6319 17.737 23.8872C17.4817 24.1426 17.1785 24.3452 16.8449 24.4834C16.5112 24.6216 16.1536 24.6927 15.7925 24.6927H5.5C4.77065 24.6927 4.07118 24.403 3.55546 23.8872C3.03973 23.3715 2.75 22.672 2.75 21.9427C2.75 21.2133 3.03973 20.5139 3.55546 19.9981C4.07118 19.4824 4.77065 19.1927 5.5 19.1927H15.79C16.5189 19.194 17.2175 19.4847 17.7322 20.0008C18.2469 20.5169 18.5357 21.2163 18.535 21.9452L18.5425 21.9427ZM13.7775 18.4427H7.5275V17.2352H13.7775V18.4427ZM15.495 16.4802H5.5525V12.2002H8.5525L9.8175 14.2702C9.85093 14.3251 9.89793 14.3705 9.95396 14.402C10.01 14.4336 10.0732 14.4501 10.1375 14.4502H15.4875L15.495 16.4802ZM19.245 5.25019C18.9978 5.25019 18.7561 5.17688 18.5505 5.03953C18.345 4.90218 18.1848 4.70696 18.0901 4.47855C17.9955 4.25014 17.9708 3.99881 18.019 3.75633C18.0672 3.51386 18.1863 3.29113 18.3611 3.11631C18.5359 2.9415 18.7587 2.82244 19.0011 2.77421C19.2436 2.72598 19.4949 2.75074 19.7234 2.84535C19.9518 2.93995 20.147 3.10017 20.2843 3.30573C20.4217 3.51129 20.495 3.75297 20.495 4.00019C20.4957 4.1654 20.4636 4.3291 20.4006 4.48183C20.3376 4.63455 20.2449 4.77328 20.128 4.88998C20.0111 5.00668 19.8722 5.09905 19.7193 5.16173C19.5665 5.22442 19.4027 5.25619 19.2375 5.25519L19.245 5.25019ZM22.4325 12.9577C22.4325 12.7105 22.5058 12.4688 22.6432 12.2632C22.7805 12.0577 22.9757 11.8975 23.2041 11.8028C23.4326 11.7082 23.6839 11.6835 23.9264 11.7317C24.1688 11.7799 24.3916 11.899 24.5664 12.0738C24.7412 12.2486 24.8602 12.4714 24.9085 12.7138C24.9567 12.9563 24.932 13.2076 24.8373 13.436C24.7427 13.6645 24.5825 13.8597 24.377 13.997C24.1714 14.1344 23.9297 14.2077 23.6825 14.2077C23.351 14.2077 23.033 14.076 22.7986 13.8416C22.5642 13.6072 22.4325 13.2892 22.4325 12.9577ZM24.49 18.3677C24.4258 18.4267 24.3499 18.4715 24.2671 18.4991C24.1844 18.5267 24.0968 18.5364 24.01 18.5277L20.8 18.2077L23.85 14.9577C24.1505 14.9347 24.4419 14.8441 24.7025 14.6927V17.9027C24.7023 17.9909 24.6833 18.078 24.6466 18.1582C24.61 18.2384 24.5566 18.3099 24.49 18.3677Z" />
</svg>