<svg xmlns="http://www.w3.org/2000/svg" width="20" height="22" viewBox="0 0 20 22">
    <path fill-rule="evenodd" clip-rule="evenodd"
        d="M15.3796 1.75C15.0841 1.74993 14.7914 1.80807 14.5184 1.92109C14.2454 2.03409 13.9973 2.19974 13.7884 2.40858C13.7883 2.40863 13.7884 2.40854 13.7884 2.40858L2.84836 13.3486C2.14509 14.0519 1.75 15.0057 1.75 16.0003C1.75 16.9948 2.14509 17.9487 2.84836 18.6519C3.55162 19.3552 4.50546 19.7503 5.50003 19.7503C6.4946 19.7503 7.44843 19.3552 8.1517 18.6519L15.8447 10.9589C16.1376 10.666 16.6125 10.666 16.9054 10.9589C17.1983 11.2518 17.1983 11.7267 16.9054 12.0196L9.21236 19.7126C8.22779 20.6972 6.89242 21.2503 5.50003 21.2503C4.10763 21.2503 2.77227 20.6972 1.7877 19.7126C0.803126 18.728 0.25 17.3926 0.25 16.0003C0.25 14.6079 0.803126 13.2725 1.7877 12.2879L12.7277 1.34792C13.076 0.999763 13.4896 0.723494 13.9447 0.535133C14.3997 0.346773 14.8874 0.249884 15.3799 0.25C15.8724 0.250116 16.36 0.347234 16.815 0.535809C17.27 0.724385 17.6833 1.00072 18.0315 1.34905C18.3796 1.69737 18.6558 2.11086 18.8442 2.56591C19.0325 3.02096 19.1294 3.50865 19.1293 4.00114C19.1292 4.49363 19.032 4.98127 18.8435 5.43623C18.6549 5.89113 18.3786 6.30445 18.0304 6.65258C18.0303 6.65263 18.0304 6.65254 18.0304 6.65258L7.08236 17.6006L7.07105 17.6117C6.64409 18.021 6.07429 18.2437 5.48547 18.2363C4.89535 18.2288 4.33179 17.9898 3.91625 17.5707C3.50071 17.1516 3.26647 16.586 3.264 15.9959C3.26153 15.4057 3.49103 14.8382 3.90305 14.4157L3.90966 14.4089L11.7197 6.59892C12.0126 6.30603 12.4875 6.30603 12.7804 6.59892C13.0733 6.89182 13.0733 7.36669 12.7804 7.65958L4.97428 15.4657C4.83865 15.6062 4.76317 15.7942 4.76398 15.9896C4.76481 16.1863 4.84289 16.3748 4.9814 16.5145C5.11992 16.6542 5.30777 16.7339 5.50448 16.7364C5.69468 16.7388 5.87697 16.6699 6.01608 16.5446C6.01761 16.543 6.01915 16.5415 6.0207 16.5399L6.0307 16.5299C6.03849 16.5221 6.0464 16.5146 6.05444 16.5072L16.9697 5.59192C17.1787 5.38302 17.3446 5.13486 17.4578 4.86188C17.5709 4.58889 17.6292 4.29629 17.6293 4.00078C17.6294 3.70527 17.5712 3.41265 17.4582 3.13961C17.3452 2.86657 17.1795 2.61847 16.9706 2.40946C16.7617 2.20045 16.5136 2.03464 16.2407 1.92149C15.9677 1.80834 15.6751 1.75007 15.3796 1.75Z" />
</svg>