<svg xmlns="http://www.w3.org/2000/svg" width="28" height="28" viewBox="0 0 28 28">
    <path fill-rule="evenodd" clip-rule="evenodd"
        d="M8.66659 5.83337C8.44557 5.83337 8.23361 5.92117 8.07733 6.07745C7.92105 6.23373 7.83325 6.44569 7.83325 6.66671V9.33337C7.83325 9.55439 7.92105 9.76635 8.07733 9.92263C8.23361 10.0789 8.44557 10.1667 8.66659 10.1667C8.8876 10.1667 9.09956 10.0789 9.25584 9.92263C9.41212 9.76635 9.49992 9.55439 9.49992 9.33337V6.66671C9.49992 6.44569 9.41212 6.23373 9.25584 6.07745C9.09956 5.92117 8.8876 5.83337 8.66659 5.83337ZM10.4999 7.50004V6.66671C10.4999 6.18048 10.3068 5.71416 9.96295 5.37035C9.61913 5.02653 9.15282 4.83337 8.66659 4.83337C8.18036 4.83337 7.71404 5.02653 7.37022 5.37035C7.02641 5.71416 6.83325 6.18048 6.83325 6.66671V7.50004H3.33325C3.05711 7.50004 2.83325 7.7239 2.83325 8.00004C2.83325 8.27618 3.05711 8.50004 3.33325 8.50004H6.83325V9.33337C6.83325 9.8196 7.02641 10.2859 7.37022 10.6297C7.71404 10.9736 8.18036 11.1667 8.66659 11.1667C9.15282 11.1667 9.61913 10.9736 9.96295 10.6297C10.3068 10.2859 10.4999 9.8196 10.4999 9.33337V8.50004H24.6666C24.9427 8.50004 25.1666 8.27618 25.1666 8.00004C25.1666 7.7239 24.9427 7.50004 24.6666 7.50004H10.4999ZM19.3333 12.5C19.1122 12.5 18.9003 12.5878 18.744 12.7441C18.5877 12.9004 18.4999 13.1124 18.4999 13.3334V16C18.4999 16.2211 18.5877 16.433 18.744 16.5893C18.9003 16.7456 19.1122 16.8334 19.3333 16.8334C19.5543 16.8334 19.7662 16.7456 19.9225 16.5893C20.0788 16.433 20.1666 16.2211 20.1666 16V13.3334C20.1666 13.1124 20.0788 12.9004 19.9225 12.7441C19.7662 12.5878 19.5543 12.5 19.3333 12.5ZM21.1666 14.1667V13.3334C21.1666 12.8471 20.9734 12.3808 20.6296 12.037C20.2858 11.6932 19.8195 11.5 19.3333 11.5C18.847 11.5 18.3807 11.6932 18.0369 12.037C17.6931 12.3808 17.4999 12.8471 17.4999 13.3334V14.1667H3.33325C3.05711 14.1667 2.83325 14.3906 2.83325 14.6667C2.83325 14.9428 3.05711 15.1667 3.33325 15.1667H17.4999V16C17.4999 16.4863 17.6931 16.9526 18.0369 17.2964C18.3807 17.6402 18.847 17.8334 19.3333 17.8334C19.8195 17.8334 20.2858 17.6402 20.6296 17.2964C20.9734 16.9526 21.1666 16.4863 21.1666 16V15.1667H24.6666C24.9427 15.1667 25.1666 14.9428 25.1666 14.6667C25.1666 14.3906 24.9427 14.1667 24.6666 14.1667H21.1666ZM8.66659 19.1667C8.44557 19.1667 8.23361 19.2545 8.07733 19.4108C7.92105 19.5671 7.83325 19.779 7.83325 20V22.6667C7.83325 22.8877 7.92105 23.0997 8.07733 23.256C8.23361 23.4122 8.44557 23.5 8.66659 23.5C8.8876 23.5 9.09956 23.4122 9.25584 23.256C9.41212 23.0997 9.49992 22.8877 9.49992 22.6667V20C9.49992 19.779 9.41212 19.5671 9.25584 19.4108C9.09956 19.2545 8.8876 19.1667 8.66659 19.1667ZM10.4999 20.8334V20C10.4999 19.5138 10.3068 19.0475 9.96295 18.7037C9.61913 18.3599 9.15282 18.1667 8.66659 18.1667C8.18036 18.1667 7.71404 18.3599 7.37022 18.7037C7.02641 19.0475 6.83325 19.5138 6.83325 20V20.8334H3.33325C3.05711 20.8334 2.83325 21.0572 2.83325 21.3334C2.83325 21.6095 3.05711 21.8334 3.33325 21.8334H6.83325V22.6667C6.83325 23.1529 7.02641 23.6193 7.37022 23.9631C7.71404 24.3069 8.18036 24.5 8.66659 24.5C9.15281 24.5 9.61913 24.3069 9.96295 23.9631C10.3068 23.6193 10.4999 23.1529 10.4999 22.6667V21.8334H24.6666C24.9427 21.8334 25.1666 21.6095 25.1666 21.3334C25.1666 21.0572 24.9427 20.8334 24.6666 20.8334H10.4999Z" />
</svg>