<svg xmlns="http://www.w3.org/2000/svg" width="28" height="28" viewBox="0 0 28 28">
    <path
        d="M5.99935 7H12.666C13.0196 7 13.3588 7.1475 13.6088 7.41005C13.8589 7.6726 13.9993 8.0287 13.9993 8.4C13.9993 8.7713 13.8589 9.1274 13.6088 9.38995C13.3588 9.6525 13.0196 9.8 12.666 9.8H5.99935C5.64573 9.8 5.30659 9.6525 5.05654 9.38995C4.80649 9.1274 4.66602 8.7713 4.66602 8.4C4.66602 8.0287 4.80649 7.6726 5.05654 7.41005C5.30659 7.1475 5.64573 7 5.99935 7ZM15.3327 18.2H21.9993C22.353 18.2 22.6921 18.3475 22.9422 18.6101C23.1922 18.8726 23.3327 19.2287 23.3327 19.6C23.3327 19.9713 23.1922 20.3274 22.9422 20.5899C22.6921 20.8525 22.353 21 21.9993 21H15.3327C14.9791 21 14.6399 20.8525 14.3899 20.5899C14.1398 20.3274 13.9993 19.9713 13.9993 19.6C13.9993 19.2287 14.1398 18.8726 14.3899 18.6101C14.6399 18.3475 14.9791 18.2 15.3327 18.2ZM5.99935 12.6H21.9993C22.353 12.6 22.6921 12.7475 22.9422 13.0101C23.1922 13.2726 23.3327 13.6287 23.3327 14C23.3327 14.3713 23.1922 14.7274 22.9422 14.9899C22.6921 15.2525 22.353 15.4 21.9993 15.4H5.99935C5.64573 15.4 5.30659 15.2525 5.05654 14.9899C4.80649 14.7274 4.66602 14.3713 4.66602 14C4.66602 13.6287 4.80649 13.2726 5.05654 13.0101C5.30659 12.7475 5.64573 12.6 5.99935 12.6Z" />
    <path fill-rule="evenodd" clip-rule="evenodd"
        d="M12.666 7.6H5.99935C5.81456 7.6 5.63106 7.6768 5.49102 7.82384C5.35004 7.97188 5.26602 8.17864 5.26602 8.4C5.26602 8.62136 5.35004 8.82812 5.49102 8.97616C5.63106 9.1232 5.81456 9.2 5.99935 9.2H12.666C12.8508 9.2 13.0343 9.1232 13.1743 8.97616C13.3153 8.82812 13.3993 8.62136 13.3993 8.4C13.3993 8.17864 13.3153 7.97188 13.1743 7.82384C13.0343 7.6768 12.8508 7.6 12.666 7.6ZM21.9993 18.8H15.3327C15.1479 18.8 14.9644 18.8768 14.8244 19.0238C14.6834 19.1719 14.5993 19.3786 14.5993 19.6C14.5993 19.8214 14.6834 20.0281 14.8244 20.1762C14.9644 20.3232 15.1479 20.4 15.3327 20.4H21.9993C22.1841 20.4 22.3676 20.3232 22.5077 20.1762C22.6487 20.0281 22.7327 19.8214 22.7327 19.6C22.7327 19.3786 22.6487 19.1719 22.5077 19.0238C22.3676 18.8768 22.1841 18.8 21.9993 18.8ZM21.9993 13.2H5.99935C5.81456 13.2 5.63106 13.2768 5.49102 13.4238C5.35004 13.5719 5.26602 13.7786 5.26602 14C5.26602 14.2214 5.35004 14.4281 5.49102 14.5762C5.63106 14.7232 5.81456 14.8 5.99935 14.8H21.9993C22.1841 14.8 22.3676 14.7232 22.5077 14.5762C22.6487 14.4281 22.7327 14.2214 22.7327 14C22.7327 13.7786 22.6487 13.5719 22.5077 13.4238C22.3676 13.2768 22.1841 13.2 21.9993 13.2ZM12.666 7H5.99935C5.64573 7 5.30659 7.1475 5.05654 7.41005C4.80649 7.6726 4.66602 8.0287 4.66602 8.4C4.66602 8.7713 4.80649 9.1274 5.05654 9.38995C5.30659 9.6525 5.64573 9.8 5.99935 9.8H12.666C13.0196 9.8 13.3588 9.6525 13.6088 9.38995C13.8589 9.1274 13.9993 8.7713 13.9993 8.4C13.9993 8.0287 13.8589 7.6726 13.6088 7.41005C13.3588 7.1475 13.0196 7 12.666 7ZM21.9993 18.2H15.3327C14.9791 18.2 14.6399 18.3475 14.3899 18.6101C14.1398 18.8726 13.9993 19.2287 13.9993 19.6C13.9993 19.9713 14.1398 20.3274 14.3899 20.5899C14.6399 20.8525 14.9791 21 15.3327 21H21.9993C22.353 21 22.6921 20.8525 22.9422 20.5899C23.1922 20.3274 23.3327 19.9713 23.3327 19.6C23.3327 19.2287 23.1922 18.8726 22.9422 18.6101C22.6921 18.3475 22.353 18.2 21.9993 18.2ZM21.9993 12.6H5.99935C5.64573 12.6 5.30659 12.7475 5.05654 13.0101C4.80649 13.2726 4.66602 13.6287 4.66602 14C4.66602 14.3713 4.80649 14.7274 5.05654 14.9899C5.30659 15.2525 5.64573 15.4 5.99935 15.4H21.9993C22.353 15.4 22.6921 15.2525 22.9422 14.9899C23.1922 14.7274 23.3327 14.3713 23.3327 14C23.3327 13.6287 23.1922 13.2726 22.9422 13.0101C22.6921 12.7475 22.353 12.6 21.9993 12.6Z" />
</svg>