<svg xmlns="http://www.w3.org/2000/svg" width="29" height="29" viewBox="0 0 29 29">
    <path
        d="M7.69669 24.6775C7.35709 24.6769 7.02349 24.5879 6.72872 24.4192C6.06497 24.0431 5.65234 23.313 5.65234 22.5204V6.47973C5.65234 5.68489 6.06497 4.95698 6.72872 4.58086C7.03051 4.40742 7.37335 4.31822 7.72139 4.3226C8.06944 4.32698 8.40993 4.42477 8.70725 4.60575L22.4165 12.8119C22.7022 12.9911 22.9377 13.2398 23.101 13.5349C23.2642 13.83 23.3499 14.1617 23.3499 14.4989C23.3499 14.8362 23.2642 15.1679 23.101 15.463C22.9377 15.758 22.7022 16.0068 22.4165 16.186L8.70504 24.3943C8.40076 24.5783 8.05225 24.6762 7.69669 24.6775Z" />
</svg>