<svg xmlns="http://www.w3.org/2000/svg" width="41" height="39" viewBox="0 0 41 39">
    <path fill-rule="evenodd" clip-rule="evenodd"
        d="M20.4216 31.4219C20.2568 31.4219 20.0992 31.3541 19.9859 31.2344L10.7609 21.4912C10.5331 21.2506 10.5434 20.8708 10.7841 20.643C11.0247 20.4152 11.4044 20.4256 11.6323 20.6662L19.8216 29.3155L19.8216 8.08783C19.8216 7.75646 20.0902 7.48783 20.4216 7.48783C20.753 7.48783 21.0216 7.75646 21.0216 8.08783L21.0216 29.3155L29.2109 20.6662C29.4387 20.4256 29.8185 20.4152 30.0591 20.643C30.2997 20.8708 30.3101 21.2506 30.0823 21.4912L20.8573 31.2344C20.744 31.3541 20.5864 31.4219 20.4216 31.4219Z" />
</svg>