<svg xmlns="http://www.w3.org/2000/svg" width="17" height="17" viewBox="0 0 17 17">
    <path
        d="M13.9039 5.18811C13.966 5.12802 14.0389 5.08105 14.1186 5.04987C14.1984 5.01868 14.2833 5.00391 14.3686 5.00638C14.4539 5.00886 14.5379 5.02853 14.6158 5.06428C14.6936 5.10004 14.7639 5.15117 14.8225 5.21475C14.8811 5.27834 14.9269 5.35314 14.9573 5.43489C14.9877 5.51663 15.0022 5.60371 14.9997 5.69117C14.9973 5.77862 14.9781 5.86473 14.9433 5.94458C14.9084 6.02443 14.8585 6.09646 14.7965 6.15655L8.94994 11.8179C8.82932 11.9349 8.66964 12 8.50365 12C8.33767 12 8.17798 11.9349 8.05736 11.8179L2.21014 6.15654C2.14677 6.09685 2.09559 6.02484 2.05958 5.9447C2.02358 5.86456 2.00347 5.77788 2.00041 5.6897C1.99735 5.60151 2.01142 5.51359 2.04179 5.43103C2.07215 5.34847 2.11822 5.27292 2.1773 5.20876C2.23639 5.14461 2.30732 5.09313 2.38597 5.05732C2.46462 5.02151 2.54943 5.00208 2.63547 5.00016C2.72151 4.99824 2.80707 5.01386 2.88717 5.04613C2.96727 5.07839 3.04032 5.12666 3.10207 5.18811L8.50365 10.4179L13.9039 5.18811Z" />
</svg>