<svg xmlns="http://www.w3.org/2000/svg" width="52" height="55" viewBox="0 0 52 55" vector-effect="non-scaling-stroke">
    <path fill-rule="evenodd" clip-rule="evenodd"
        d="M10.3032 27.6055C10.3032 27.7696 10.3705 27.9267 10.4894 28.0399L23.4803 40.4149C23.7202 40.6435 24.1 40.6342 24.3285 40.3943C24.5571 40.1544 24.5479 39.7746 24.308 39.546L12.403 28.2055L41.2153 28.2055C41.5467 28.2055 41.8153 27.9368 41.8153 27.6055C41.8153 27.2741 41.5467 27.0055 41.2153 27.0055L12.403 27.0055L24.3079 15.6649C24.5479 15.4363 24.5571 15.0566 24.3285 14.8166C24.1 14.5767 23.7202 14.5675 23.4803 14.796L10.4894 27.171C10.3705 27.2843 10.3032 27.4413 10.3032 27.6055Z" />
</svg>