<svg xmlns="http://www.w3.org/2000/svg" width="52" height="55" viewBox="0 0 52 55">
    <path fill-rule="evenodd" clip-rule="evenodd"
        d="M41.6968 27.6055C41.6968 27.7696 41.6295 27.9267 41.5106 28.0399L28.5197 40.4149C28.2798 40.6435 27.9 40.6342 27.6715 40.3943C27.4429 40.1544 27.4521 39.7746 27.692 39.546L39.597 28.2055L10.7847 28.2055C10.4533 28.2055 10.1847 27.9368 10.1847 27.6055C10.1847 27.2741 10.4533 27.0055 10.7847 27.0055L39.597 27.0055L27.6921 15.6649C27.4521 15.4363 27.4429 15.0566 27.6715 14.8166C27.9 14.5767 28.2798 14.5675 28.5197 14.796L41.5106 27.171C41.6295 27.2843 41.6968 27.4413 41.6968 27.6055Z" />
</svg>