<svg xmlns="http://www.w3.org/2000/svg" width="22" height="22" viewBox="0 0 22 22">
    <path
        d="M19.7111 16.8487H17.6202C16.8291 16.8487 16.5908 16.2079 15.1727 14.7889C13.9333 13.5945 13.4099 13.446 13.0964 13.446C12.6628 13.446 12.5446 13.5652 12.5446 14.1619V16.0429C12.5446 16.5517 12.3796 16.8496 11.0504 16.8496C9.76093 16.7629 8.51048 16.3712 7.40205 15.7066C6.29363 15.0421 5.35895 14.1237 4.675 13.0271C3.05102 11.0058 1.92107 8.63357 1.375 6.09891C1.375 5.78541 1.49417 5.50124 2.09183 5.50124H4.18183C4.719 5.50124 4.91242 5.74049 5.12325 6.29324C6.138 9.27974 7.86958 11.8776 8.57267 11.8776C8.84217 11.8776 8.9595 11.7584 8.9595 11.0865V8.01016C8.87058 6.60674 8.12533 6.48849 8.12533 5.98066C8.13476 5.84668 8.19605 5.72165 8.29618 5.63214C8.39631 5.54262 8.52739 5.49566 8.66158 5.50124H11.9469C12.3961 5.50124 12.5446 5.72491 12.5446 6.26208V10.4146C12.5446 10.8628 12.7371 11.0113 12.8728 11.0113C13.1423 11.0113 13.3494 10.8628 13.8435 10.3697C14.9026 9.07806 15.7678 7.63906 16.412 6.09799C16.4779 5.91297 16.6026 5.75459 16.7669 5.64701C16.9313 5.53943 17.1263 5.48856 17.3222 5.50216H19.4132C20.0402 5.50216 20.1731 5.81566 20.0402 6.26299C19.2797 7.96654 18.3387 9.58362 17.2333 11.0865C17.0078 11.4302 16.918 11.609 17.2333 12.0123C17.4405 12.3258 18.1738 12.9382 18.6661 13.5202C19.3829 14.2352 19.9778 15.0621 20.4279 15.9677C20.6076 16.5507 20.3078 16.8487 19.7111 16.8487Z" />
</svg>