<svg xmlns="http://www.w3.org/2000/svg" width="22" height="22" viewBox="0 0 22 22">
    <path
        d="M17.4627 4.50154C16.6223 3.65264 15.6213 2.97957 14.5181 2.52159C13.4148 2.0636 12.2314 1.82988 11.0369 1.83404C6.03189 1.83404 1.95273 5.91321 1.95273 10.9182C1.95273 12.5224 2.37439 14.0807 3.16273 15.4557L1.87939 20.1674L6.69189 18.9024C8.02106 19.6265 9.51523 20.0115 11.0369 20.0115C16.0419 20.0115 20.1211 15.9324 20.1211 10.9274C20.1211 8.49821 19.1769 6.21571 17.4627 4.50154ZM11.0369 18.4715C9.68023 18.4715 8.35106 18.1049 7.18689 17.4174L6.91189 17.2524L4.05189 18.004L4.81273 15.2174L4.62939 14.9332C3.87566 13.7296 3.47544 12.3383 3.47439 10.9182C3.47439 6.75654 6.86606 3.36487 11.0277 3.36487C13.0444 3.36487 14.9419 4.15321 16.3627 5.58321C17.0663 6.28351 17.6238 7.11648 18.003 8.03385C18.3822 8.95121 18.5756 9.93472 18.5719 10.9274C18.5902 15.089 15.1986 18.4715 11.0369 18.4715ZM15.1802 12.8249C14.9511 12.7149 13.8327 12.1649 13.6311 12.0824C13.4202 12.009 13.2736 11.9724 13.1177 12.1924C12.9619 12.4215 12.5311 12.9349 12.4027 13.0815C12.2744 13.2374 12.1369 13.2557 11.9077 13.1365C11.6786 13.0265 10.9452 12.779 10.0836 12.009C9.40523 11.404 8.95606 10.6615 8.81856 10.4324C8.69023 10.2032 8.80023 10.084 8.91939 9.96487C9.02023 9.86404 9.14856 9.69904 9.25856 9.5707C9.36856 9.44237 9.41439 9.34154 9.48773 9.19487C9.56106 9.03904 9.52439 8.91071 9.46939 8.80071C9.41439 8.69071 8.95606 7.57237 8.77273 7.11404C8.58939 6.67404 8.39689 6.72904 8.25939 6.71987H7.81939C7.66356 6.71987 7.42523 6.77487 7.21439 7.00404C7.01273 7.23321 6.42606 7.78321 6.42606 8.90154C6.42606 10.0199 7.24189 11.1015 7.35189 11.2482C7.46189 11.404 8.95606 13.6957 11.2294 14.6765C11.7702 14.9149 12.1919 15.0524 12.5219 15.1532C13.0627 15.3274 13.5577 15.2999 13.9519 15.2449C14.3919 15.1807 15.2994 14.6949 15.4827 14.1632C15.6752 13.6315 15.6752 13.1824 15.6111 13.0815C15.5469 12.9807 15.4094 12.9349 15.1802 12.8249Z" />
</svg>