<svg xmlns="http://www.w3.org/2000/svg" width="22" height="22" viewBox="0 0 22 22">
    <path
        d="M9.16659 13.7507L13.9241 11.0007L9.16659 8.25065V13.7507ZM19.7633 6.57315C19.8824 7.00398 19.9649 7.58148 20.0199 8.31482C20.0841 9.04815 20.1116 9.68065 20.1116 10.2307L20.1666 11.0007C20.1666 13.0082 20.0199 14.484 19.7633 15.4282C19.5341 16.2531 19.0024 16.7848 18.1774 17.014C17.7466 17.1332 16.9583 17.2157 15.7483 17.2707C14.5566 17.3348 13.4658 17.3623 12.4574 17.3623L10.9999 17.4173C7.15909 17.4173 4.76659 17.2706 3.82242 17.014C2.99742 16.7848 2.46575 16.2531 2.23659 15.4282C2.11742 14.9973 2.03492 14.4198 1.97992 13.6865C1.91575 12.9532 1.88825 12.3207 1.88825 11.7707L1.83325 11.0007C1.83325 8.99315 1.97992 7.51732 2.23659 6.57315C2.46575 5.74815 2.99742 5.21648 3.82242 4.98732C4.25325 4.86815 5.04159 4.78565 6.25159 4.73065C7.44325 4.66648 8.53409 4.63898 9.54242 4.63898L10.9999 4.58398C14.8408 4.58398 17.2333 4.73065 18.1774 4.98732C19.0024 5.21648 19.5341 5.74815 19.7633 6.57315Z" />
</svg>