<svg xmlns="http://www.w3.org/2000/svg" width="48" height="48" viewBox="0 0 48 48" fill="none">
    <g clip-path="url(#clip0_142_2316)">
        <path
            d="M15.5405 13.8481C15.8461 13.5936 16.2402 13.4708 16.6363 13.5068C17.0323 13.5429 17.3979 13.7347 17.6525 14.0401L24.0005 21.6571L30.3485 14.0371C30.6035 13.7316 30.9695 13.5398 31.3658 13.5041C31.7622 13.4684 32.1565 13.5916 32.462 13.8466C32.7676 14.1016 32.9593 14.4675 32.995 14.8639C33.0307 15.2602 32.9075 15.6546 32.6525 15.9601L25.9535 24.0001L32.6525 32.0401C32.8959 32.3468 33.0097 32.7366 32.9696 33.1261C32.9295 33.5157 32.7386 33.8741 32.4378 34.1248C32.1369 34.3754 31.75 34.4986 31.3596 34.4678C30.9692 34.437 30.6064 34.2548 30.3485 33.9601L24.0005 26.3431L17.6525 33.9631C17.3975 34.2686 17.0316 34.4603 16.6352 34.496C16.2389 34.5318 15.8446 34.4086 15.539 34.1536C15.2335 33.8986 15.0418 33.5326 15.0061 33.1363C14.9703 32.7399 15.0935 32.3456 15.3485 32.0401L22.0475 24.0001L15.3485 15.9601C15.094 15.6545 14.9713 15.2604 15.0073 14.8643C15.0433 14.4683 15.2351 14.1028 15.5405 13.8481Z"
            fill="#A2A5C3" />
        <path
            d="M12 0C10.4087 0 8.88258 0.632141 7.75736 1.75736C6.63214 2.88258 6 4.4087 6 6V42C6 43.5913 6.63214 45.1174 7.75736 46.2426C8.88258 47.3679 10.4087 48 12 48H36C37.5913 48 39.1174 47.3679 40.2426 46.2426C41.3679 45.1174 42 43.5913 42 42V6C42 4.4087 41.3679 2.88258 40.2426 1.75736C39.1174 0.632141 37.5913 0 36 0L12 0ZM12 3H36C36.7956 3 37.5587 3.31607 38.1213 3.87868C38.6839 4.44129 39 5.20435 39 6V42C39 42.7957 38.6839 43.5587 38.1213 44.1213C37.5587 44.6839 36.7956 45 36 45H12C11.2044 45 10.4413 44.6839 9.87868 44.1213C9.31607 43.5587 9 42.7957 9 42V6C9 5.20435 9.31607 4.44129 9.87868 3.87868C10.4413 3.31607 11.2044 3 12 3Z"
            fill="#A2A5C3" />
    </g>
    <defs>
        <clipPath id="clip0_142_2316">
            <rect width="48" height="48" fill="white" />
        </clipPath>
    </defs>
</svg>