<svg xmlns="http://www.w3.org/2000/svg" width="48" height="48" viewBox="0 0 48 48" fill="none">
    <g clip-path="url(#clip0_142_2312)">
        <path
            d="M14.6365 13.5445C15.0224 13.4484 15.4307 13.5094 15.7716 13.7141C16.1125 13.9189 16.3581 14.2507 16.4545 14.6365L19.5625 27.0685L22.5535 16.1035C22.6408 15.787 22.8295 15.5079 23.0907 15.309C23.352 15.1101 23.6712 15.0024 23.9995 15.0024C24.3278 15.0024 24.6471 15.1101 24.9083 15.309C25.1695 15.5079 25.3582 15.787 25.4455 16.1035L28.4365 27.0685L31.5445 14.6365C31.6481 14.2587 31.8955 13.9363 32.2337 13.7385C32.5719 13.5406 32.9741 13.483 33.3542 13.5778C33.7344 13.6727 34.0623 13.9125 34.268 14.246C34.4736 14.5795 34.5405 14.9803 34.4545 15.3625L29.9545 33.3625C29.8735 33.6838 29.6884 33.9692 29.4281 34.1742C29.1677 34.3791 28.8469 34.4922 28.5156 34.4956C28.1843 34.499 27.8611 34.3927 27.5967 34.1931C27.3322 33.9935 27.1412 33.712 27.0535 33.3925L23.9995 22.2055L20.9455 33.3955C20.8579 33.715 20.6669 33.9965 20.4024 34.1961C20.1379 34.3957 19.8148 34.502 19.4835 34.4986C19.1521 34.4952 18.8313 34.3821 18.571 34.1772C18.3107 33.9722 18.1255 33.6868 18.0445 33.3655L13.5445 15.3655C13.4484 14.9796 13.5094 14.5714 13.7141 14.2304C13.9189 13.8895 14.2507 13.6409 14.6365 13.5445Z"
            fill="#A2A5C3" />
        <path
            d="M12 0C10.4087 0 8.88258 0.632141 7.75736 1.75736C6.63214 2.88258 6 4.4087 6 6V42C6 43.5913 6.63214 45.1174 7.75736 46.2426C8.88258 47.3679 10.4087 48 12 48H36C37.5913 48 39.1174 47.3679 40.2426 46.2426C41.3679 45.1174 42 43.5913 42 42V6C42 4.4087 41.3679 2.88258 40.2426 1.75736C39.1174 0.632141 37.5913 0 36 0L12 0ZM12 3H36C36.7956 3 37.5587 3.31607 38.1213 3.87868C38.6839 4.44129 39 5.20435 39 6V42C39 42.7957 38.6839 43.5587 38.1213 44.1213C37.5587 44.6839 36.7956 45 36 45H12C11.2044 45 10.4413 44.6839 9.87868 44.1213C9.31607 43.5587 9 42.7957 9 42V6C9 5.20435 9.31607 4.44129 9.87868 3.87868C10.4413 3.31607 11.2044 3 12 3Z"
            fill="#A2A5C3" />
    </g>
    <defs>
        <clipPath id="clip0_142_2312">
            <rect width="48" height="48" fill="white" />
        </clipPath>
    </defs>
</svg>