<svg xmlns="http://www.w3.org/2000/svg" width="48" height="48" viewBox="0 0 48 48" fill="none">
    <g clip-path="url(#clip0_142_2308)">
        <path
            d="M12 0C10.4087 0 8.88258 0.632141 7.75736 1.75736C6.63214 2.88258 6 4.4087 6 6V42C6 43.5913 6.63214 45.1174 7.75736 46.2426C8.88258 47.3679 10.4087 48 12 48H36C37.5913 48 39.1174 47.3679 40.2426 46.2426C41.3679 45.1174 42 43.5913 42 42V6C42 4.4087 41.3679 2.88258 40.2426 1.75736C39.1174 0.632141 37.5913 0 36 0L12 0ZM12 3H36C36.7956 3 37.5587 3.31607 38.1213 3.87868C38.6839 4.44129 39 5.20435 39 6V42C39 42.7957 38.6839 43.5587 38.1213 44.1213C37.5587 44.6839 36.7956 45 36 45H12C11.2044 45 10.4413 44.6839 9.87868 44.1213C9.31607 43.5587 9 42.7957 9 42V6C9 5.20435 9.31607 4.44129 9.87868 3.87868C10.4413 3.31607 11.2044 3 12 3Z"
            fill="#A2A5C3" />
        <path
            d="M13.8085 36.261C13.2238 36.0271 12.7527 35.5754 12.4945 35.001C11.9095 33.837 12.1045 32.673 12.7345 31.695C13.3285 30.774 14.3125 29.991 15.4255 29.334C16.8353 28.5344 18.3256 27.8858 19.8715 27.399C21.0721 25.2407 22.1361 23.0093 23.0575 20.718C22.5067 19.4663 22.0748 18.1656 21.7675 16.833C21.5095 15.633 21.4105 14.445 21.6295 13.425C21.8545 12.363 22.4515 11.409 23.5795 10.956C24.1555 10.725 24.7795 10.596 25.3855 10.725C25.6903 10.7899 25.9769 10.9218 26.2244 11.1112C26.4719 11.3006 26.6742 11.5427 26.8165 11.82C27.0805 12.312 27.1765 12.888 27.1975 13.434C27.2185 13.995 27.1615 14.619 27.0565 15.276C26.8045 16.806 26.2465 18.678 25.4965 20.658C26.3242 22.428 27.3081 24.1207 28.4365 25.716C29.7718 25.6105 31.1149 25.6608 32.4385 25.866C33.5305 26.061 34.6405 26.451 35.3185 27.261C35.6785 27.693 35.8975 28.221 35.9185 28.815C35.9395 29.391 35.7775 29.961 35.5045 30.504C35.268 31.0072 34.9014 31.438 34.4425 31.752C33.9889 32.0478 33.4534 32.1928 32.9125 32.166C31.9195 32.124 30.9505 31.578 30.1135 30.915C29.0958 30.0734 28.1787 29.117 27.3805 28.065C25.3518 28.2951 23.3471 28.7026 21.3895 29.283C20.492 30.8729 19.4677 32.3878 18.3265 33.813C17.4565 34.863 16.5025 35.778 15.5485 36.174C15.0004 36.4219 14.3787 36.453 13.8085 36.261ZM17.9455 30.558C17.4475 30.786 16.9855 31.026 16.5685 31.272C15.5845 31.854 14.9455 32.421 14.6275 32.913C14.3455 33.348 14.3395 33.663 14.5075 33.996C14.5375 34.062 14.5675 34.104 14.5855 34.128C14.6213 34.1184 14.6564 34.1064 14.6905 34.092C15.1015 33.924 15.7555 33.387 16.5955 32.376C17.0733 31.7911 17.5237 31.1844 17.9455 30.558ZM22.8655 26.568C23.8673 26.334 24.8781 26.1408 25.8955 25.989C25.349 25.1532 24.8386 24.2944 24.3655 23.415C23.8951 24.4788 23.3949 25.5292 22.8655 26.565V26.568ZM30.2035 27.918C30.6535 28.404 31.0915 28.818 31.5085 29.148C32.2285 29.718 32.7295 29.907 33.0025 29.916C33.0756 29.9255 33.1498 29.9096 33.2125 29.871C33.3373 29.7724 33.4345 29.6432 33.4945 29.496C33.6012 29.3132 33.6619 29.1073 33.6715 28.896C33.6698 28.8255 33.642 28.7582 33.5935 28.707C33.4375 28.521 32.9935 28.251 32.0395 28.08C31.4327 27.9785 30.8188 27.9254 30.2035 27.921V27.918ZM24.2335 17.4C24.486 16.5855 24.6864 15.7559 24.8335 14.916C24.9265 14.352 24.9625 13.887 24.9475 13.521C24.9483 13.319 24.9159 13.1184 24.8515 12.927C24.7014 12.9455 24.5549 12.986 24.4165 13.047C24.1555 13.152 23.9425 13.365 23.8285 13.896C23.7085 14.472 23.7385 15.303 23.9665 16.362C24.0385 16.695 24.1285 17.043 24.2365 17.4H24.2335Z"
            fill="#A2A5C3" />
    </g>
    <defs>
        <clipPath id="clip0_142_2308">
            <rect width="48" height="48" fill="white" />
        </clipPath>
    </defs>
</svg>