<svg width="374" height="254" viewBox="0 0 374 254" fill="none" xmlns="http://www.w3.org/2000/svg">
<g clip-path="url(#clip0_170_3250)">
<g opacity="0.3">
<path d="M69.8846 -5.62366L114.508 63.0873H28.6934L-9.06516 132.943L28.6934 206.235H108.787L141.969 150.121H157.988L148.834 168.444H163.709L172.862 150.121H185.449L177.439 168.444H191.17L201.467 150.121H219.775L144.258 278.382H-6.77676L-88.0149 132.943L-6.77676 -5.62366H69.8846Z" fill="#1D225A"/>
<path d="M230.072 278.382L185.449 209.671H271.264L309.022 139.815L271.264 66.5229H191.17L157.988 122.637H141.969L151.123 104.314H136.248L127.095 122.637H114.508L122.518 104.314H108.787L98.4896 122.637H80.1824L155.7 -5.62357H306.734L387.972 139.815L306.734 278.382H230.072Z" fill="#1D225A"/>
</g>
</g>
<defs>
<clipPath id="clip0_170_3250">
<rect width="375" height="254" fill="white"/>
</clipPath>
</defs>
</svg>
