<svg width="801" height="542" viewBox="0 0 801 542" fill="none" xmlns="http://www.w3.org/2000/svg">
<g clip-path="url(#clip0_101_4909)">
<g opacity="0.3">
<path d="M149.273 -12L244.59 134.619H61.2889L-19.3634 283.683L61.2889 440.077H232.37L303.246 320.337H337.462L317.91 359.436H349.682L369.234 320.337H396.118L379.01 359.436H408.338L430.334 320.337H469.438L308.134 594.027H-14.4754L-188 283.683L-14.4754 -12H149.273Z" fill="#1D225A"/>
<path d="M491.434 594.027L396.117 447.408H579.418L660.07 298.345L579.418 141.951H408.337L337.461 261.69H303.245L322.797 222.591H291.025L271.473 261.69H244.589L261.697 222.591H232.369L210.373 261.69H171.269L332.573 -11.9996H655.182L828.707 298.345L655.182 594.027H491.434Z" fill="#1D225A"/>
</g>
</g>
<defs>
<clipPath id="clip0_101_4909">
<rect width="801" height="542" fill="white"/>
</clipPath>
</defs>
</svg>
