<svg width="132" height="132" viewBox="0 0 132 132" fill="none" xmlns="http://www.w3.org/2000/svg">
<path d="M59.7719 33.9493C59.4568 34.0187 59.2048 34.3093 59.1821 34.6294L58.4744 43.9168C57.4785 44.2441 56.4778 44.6292 55.5255 45.0895L48.3302 39.3669C48.0473 39.1445 47.5998 39.1657 47.3394 39.4139L39.0353 47.6694C38.7731 47.9307 38.7515 48.3935 38.9881 48.6779L44.7444 55.8545C44.288 56.796 43.8916 57.7789 43.5648 58.7627L34.2463 59.4663C33.867 59.4899 33.5379 59.839 33.5386 60.2168V72.2248C33.5495 72.5947 33.8748 72.9289 34.2463 72.9519L43.5412 73.6554C43.7476 74.2861 43.9498 74.9501 44.1546 75.4848C44.3325 75.9571 45.0527 76.1056 45.4049 75.7428L49.1795 71.9903C49.226 71.9415 49.2658 71.8858 49.2975 71.8261C49.3367 71.7281 49.3645 71.6095 49.3918 71.5214C49.4018 71.4516 49.4018 71.3803 49.3918 71.3104C49.3871 71.2706 49.3792 71.2315 49.3682 71.1931C48.893 69.6192 48.6369 67.9505 48.6369 66.2208C48.6369 56.6786 56.4017 48.9593 66 48.9593C75.5983 48.9593 83.3631 56.6786 83.3631 66.2208C83.3631 75.763 75.6027 83.4352 66 83.4823C64.0684 83.4921 63.6327 83.5108 63.0039 83.4823C62.7968 83.4711 62.5865 83.5499 62.4377 83.6934L58.6631 87.446C58.5126 87.5993 58.4331 87.8188 58.4508 88.0322L59.2057 97.7888C59.2295 98.1658 59.5806 98.493 59.9606 98.4924H66H72.0393C72.4193 98.493 72.7705 98.1658 72.7942 97.7888L73.5256 88.5013C74.5144 88.1761 75.5044 87.7841 76.4509 87.3286L83.6697 93.0747C83.9582 93.291 84.4061 93.2592 84.6606 93.0041L92.9646 84.7486C93.2143 84.4898 93.2356 84.0449 93.0118 83.7636L87.2556 76.5869C87.7178 75.6382 88.1063 74.6454 88.4351 73.6552L97.7536 72.9517C98.1251 72.9284 98.4503 72.5947 98.4614 72.2248V60.2168C98.4621 59.839 98.1329 59.4899 97.7536 59.4663L88.4351 58.7627C88.1084 57.7789 87.712 56.796 87.2556 55.8545L93.0118 48.6778C93.2485 48.3934 93.2268 47.9307 92.9646 47.6693L84.6606 39.4138C84.4002 39.1656 83.9527 39.1444 83.6697 39.3669L76.4744 45.0895C75.5222 44.6292 74.5215 44.2441 73.5256 43.9168L72.8178 34.6294C72.7837 34.2681 72.4513 33.959 72.0865 33.9492H66C63.9301 33.9492 61.8303 33.9492 59.7719 33.9493ZM60.6212 35.4502H66H71.3788L72.0865 44.5032C72.109 44.7975 72.3231 45.0684 72.6055 45.1598C73.8552 45.5514 75.1317 46.0366 76.2385 46.6139C76.4958 46.7522 76.8344 46.7233 77.0642 46.5436L84.0944 40.9618L91.4312 48.2557L85.8165 55.2448C85.6376 55.4641 85.5993 55.7875 85.7222 56.0422C86.2996 57.1441 86.7924 58.4369 87.1848 59.6774C87.2768 59.9581 87.5493 60.171 87.8454 60.1934L96.9515 60.8969V71.5212L87.8454 72.2248C87.5493 72.2473 87.2768 72.46 87.1848 72.7408C86.7906 73.9841 86.302 75.2736 85.7222 76.376C85.5896 76.6361 85.6283 76.9732 85.8165 77.1969L91.4076 84.1859L84.0708 91.4799L77.0642 85.898C76.8392 85.7109 76.5002 85.6724 76.2385 85.8042C75.1304 86.3811 73.8543 86.8671 72.6055 87.2583C72.3231 87.3497 72.109 87.6207 72.0865 87.9151L71.3316 96.9914H66H60.6684L59.9842 88.2668L63.287 84.9833C63.8682 85.0013 64.2997 84.9923 66 84.9833C76.4096 84.9323 84.8729 76.5741 84.8729 66.2208C84.8729 55.8674 76.4143 47.4583 66 47.4583C55.5857 47.4583 47.1271 55.8674 47.1271 66.2208C47.1271 67.9481 47.3944 69.6027 47.8348 71.1929L45.1926 73.8196C45.0669 73.446 44.9404 73.1244 44.8151 72.7408C44.7232 72.46 44.4507 72.2472 44.1546 72.2248L35.0484 71.5212V60.8969L44.1546 60.1933C44.4507 60.1709 44.7232 59.9581 44.8151 59.6774C45.2075 58.4369 45.7003 57.1441 46.2778 56.0421C46.4006 55.7875 46.3624 55.464 46.1834 55.2447L40.5687 48.2557L47.9056 40.9618L54.9357 46.5436C55.1656 46.7233 55.5042 46.7522 55.7614 46.6139C56.8683 46.0366 58.1447 45.5514 59.3945 45.1598C59.6768 45.0684 59.8909 44.7975 59.9135 44.5032L60.6212 35.4502ZM69.7746 52.7118C68.6369 52.7347 66.6347 52.7316 64.7496 52.9228C63.8071 53.0185 62.8973 53.1662 62.1074 53.3919C61.4557 53.5781 60.9245 53.8443 60.4797 54.2597C60.4552 54.2739 60.4316 54.2896 60.4089 54.3066C60.4046 54.3111 60.3895 54.3021 60.3853 54.3066C60.3521 54.3275 60.3205 54.3511 60.2909 54.3769C60.2474 54.4115 60.2078 54.4509 60.173 54.4942L55.5963 60.4982C55.4903 60.6301 55.431 60.7984 55.4312 60.9673V71.1695L35.2843 90.448C34.6955 91.0117 34.3436 91.8022 34.2935 92.676C34.2434 93.5496 34.517 94.5164 35.2607 95.2558L36.7706 96.7568C37.2302 97.2137 37.9479 97.5818 38.823 97.6949C39.6981 97.808 40.7501 97.6016 41.6067 96.7803L61.7772 77.4549L72.0865 76.7278C72.2651 76.7091 72.4358 76.6239 72.5583 76.4933L77.0878 71.9903C78.3324 70.7553 78.8251 68.6217 79.1638 66.7368C79.3332 65.7943 79.4555 64.9155 79.5177 64.2742C79.5435 63.909 79.5669 63.5416 79.5885 63.1953C79.5884 63.1799 79.5923 63.1698 79.5885 63.125C79.5865 63.1026 79.565 62.9849 79.5649 62.9843C79.5648 62.984 79.3762 62.6795 79.3762 62.6794C79.3761 62.6793 78.3383 62.6324 78.3381 62.6325L71.7326 68.4723H69.3263L64.4901 63.6409V60.4982L70.3643 53.9548C70.7466 53.5181 70.3566 52.6962 69.7746 52.7118ZM68.0288 54.2831L63.169 59.7008C63.0443 59.8413 62.9755 60.0295 62.9803 60.2168V63.9693C62.9818 64.1597 63.0595 64.3484 63.1926 64.4853L68.4535 69.7388C68.5928 69.885 68.7934 69.9718 68.9961 69.9733H72.0157C72.2041 69.9808 72.3934 69.9095 72.5347 69.7857L77.8899 65.0481C77.8322 65.5126 77.7753 65.9351 77.6776 66.4787C77.3575 68.2597 76.7103 70.2562 76.0262 70.9348L71.6854 75.2502L61.3761 75.9773C61.2005 75.9901 61.0303 76.0663 60.9043 76.1884L40.5687 95.7014C40.044 96.2046 39.5262 96.284 39.0117 96.2174C38.4972 96.1506 38.0057 95.8505 37.8558 95.7014L36.3459 94.2004C35.9247 93.7817 35.7741 93.2799 35.8033 92.7698C35.8326 92.2596 36.0637 91.7743 36.3223 91.5268L56.7051 72.0137C56.8522 71.8752 56.9395 71.6757 56.941 71.4743V61.2018L61.3053 55.4792L61.3761 55.4089C61.4663 55.2892 61.8847 55.0076 62.5321 54.8226C63.1795 54.6376 64.0245 54.5142 64.9148 54.4239C66.0448 54.3092 67.0033 54.3075 68.0288 54.2831Z" fill="#02073E"/>
<circle cx="66" cy="66" r="65.5" stroke="#02073E"/>
</svg>
