<svg width="132" height="132" viewBox="0 0 132 132" fill="none" xmlns="http://www.w3.org/2000/svg">
<circle cx="66" cy="66" r="65.5" stroke="#02073E"/>
<path d="M87.6505 90.6562C85.5548 90.6562 83.8499 92.3578 83.8499 94.4489C83.8499 96.5446 85.5548 98.2495 87.6505 98.2495C89.7416 98.2495 91.4428 96.5446 91.4428 94.4489C91.4428 92.3578 89.7416 90.6562 87.6505 90.6562ZM87.6505 97.0854C86.1968 97.0854 85.0139 95.9026 85.0139 94.4489C85.0139 92.9995 86.1968 91.8203 87.6505 91.8203C89.0996 91.8203 90.2788 92.9995 90.2788 94.4489C90.2788 95.9026 89.0996 97.0854 87.6505 97.0854Z" fill="#02073E"/>
<path d="M41.1263 90.6562C39.0306 90.6562 37.3254 92.3578 37.3254 94.4489C37.3254 96.5446 39.0306 98.2495 41.1263 98.2495C43.2175 98.2495 44.9187 96.5446 44.9187 94.4489C44.9187 92.3578 43.2175 90.6562 41.1263 90.6562ZM41.1263 97.0854C39.6724 97.0854 38.4895 95.9026 38.4895 94.4489C38.4895 92.9995 39.6724 91.8203 41.1263 91.8203C42.5755 91.8203 43.7546 92.9995 43.7546 94.4489C43.7546 95.9026 42.5755 97.0854 41.1263 97.0854Z" fill="#02073E"/>
<path d="M28.9165 95.0361H33.91C34.2099 98.7582 37.3287 101.697 41.1266 101.697C44.9203 101.697 48.0356 98.7582 48.335 95.0361H80.4346C80.7344 98.7582 83.8529 101.697 87.6509 101.697C91.4445 101.697 94.5598 98.7582 94.8593 95.0361H103.418C103.739 95.0361 104 94.7755 104 94.4541V87.7944V82.7308V82.2156C104 82.1267 103.977 82.0448 103.941 81.9694C103.748 80.5898 103.039 79.3404 101.921 78.4661L98.6352 75.8986L95.7822 64.3837C95.1777 61.9739 93.0271 60.2909 90.552 60.2909H76.8106V57.4756C76.8106 57.1542 76.55 56.8936 76.2286 56.8936C75.9071 56.8936 75.6465 57.1542 75.6465 57.4756V82.8596H28.9191C28.5976 82.8596 28.337 83.1202 28.337 83.4416L28.3345 94.4541C28.3345 94.6084 28.3959 94.7565 28.505 94.8656C28.6141 94.9748 28.7622 95.0361 28.9165 95.0361ZM87.6509 100.533C84.2973 100.533 81.569 97.8043 81.569 94.4507C81.569 91.1014 84.2973 88.3765 87.6509 88.3765C91.0002 88.3765 93.7248 91.1014 93.7248 94.4507C93.7248 97.8043 91.0002 100.533 87.6509 100.533ZM102.836 87.2124H99.5435C98.3263 87.2124 97.3359 86.2222 97.3359 85.005C97.3359 83.7878 98.3263 82.7976 99.5435 82.7976H102.836V87.2124ZM85.7831 61.455H90.552C92.4922 61.455 94.1787 62.7757 94.6525 64.6653L97.4764 76.0623H85.7831V61.455ZM76.8106 61.455H84.619V76.6444C84.619 76.9658 84.8796 77.2264 85.2011 77.2264H98.116C98.2063 77.2264 98.2892 77.2019 98.3655 77.1652L101.204 79.3835C101.944 79.9621 102.454 80.7513 102.688 81.6335H99.5435C97.6843 81.6335 96.1718 83.146 96.1718 85.005C96.1718 86.8639 97.6843 88.3765 99.5435 88.3765H102.836V93.8721H94.8596C94.5631 90.151 91.4466 87.2124 87.6509 87.2124C83.8508 87.2124 80.7311 90.151 80.4342 93.8721H76.8106V61.455ZM41.1266 100.533C37.776 100.533 35.0501 97.8093 35.045 94.4602C35.045 94.458 35.0462 94.4563 35.0462 94.4541C35.0462 94.4515 35.0447 94.4493 35.0447 94.4467C35.0469 91.0992 37.7741 88.3765 41.1266 88.3765C44.4759 88.3765 47.2006 91.1014 47.2006 94.4507C47.2006 97.8043 44.4759 100.533 41.1266 100.533ZM29.5011 84.0236H75.6465V93.8721H48.3354C48.0388 90.151 44.9224 87.2124 41.1266 87.2124C37.3266 87.2124 34.2066 90.151 33.9097 93.8721H29.4986L29.5011 84.0236Z" fill="#02073E"/>
<path d="M28.9165 80.4744H72.9242C73.2456 80.4744 73.5062 80.2138 73.5062 79.8923V57.4751C73.5062 57.4512 73.4954 57.4308 73.4926 57.4077C73.4878 57.3673 73.482 57.3289 73.4689 57.2904C73.4569 57.255 73.4404 57.2237 73.4221 57.1917C73.4038 57.1594 73.3851 57.1291 73.3606 57.1005C73.3343 57.0699 73.3045 57.0455 73.2724 57.0209C73.2538 57.0065 73.2416 56.9867 73.2209 56.9744L54.3096 45.7689C55.0739 45.1037 55.5601 44.1265 55.5601 43.036C55.5601 42.7146 55.2994 42.454 54.978 42.454C54.6566 42.454 54.396 42.7146 54.396 43.036C54.396 43.92 53.9235 44.6902 53.2219 45.1244L52.0303 44.4184C51.8527 44.3138 51.6333 44.3098 51.4531 44.4093L50.4314 44.9715C49.8524 44.5207 49.4728 43.825 49.4728 43.036C49.4728 41.6787 50.5769 40.5746 51.9342 40.5746C52.2557 40.5746 52.5163 40.314 52.5163 39.9925V37.3006H57.9357C58.2571 37.3006 58.5177 37.04 58.5177 36.7185V31.5674C58.5177 31.246 58.2571 30.9854 57.9357 30.9854H46.4617C46.1402 30.9854 45.8796 31.246 45.8796 31.5674V36.7185C45.8796 37.04 46.1402 37.3006 46.4617 37.3006H51.3522V39.4571C49.6288 39.7365 48.3087 41.2351 48.3087 43.036C48.3087 44.0215 48.705 44.9151 49.3451 45.5693L28.636 56.9653C28.6128 56.978 28.5987 56.9991 28.578 57.0143C28.5448 57.0388 28.5126 57.0619 28.4853 57.0927C28.4603 57.1208 28.4427 57.1518 28.4239 57.1838C28.4049 57.2158 28.3862 57.2463 28.3735 57.2819C28.3598 57.3204 28.3551 57.3594 28.3496 57.4C28.3462 57.4257 28.3345 57.4485 28.3345 57.4751V79.8923C28.3345 80.2138 28.5951 80.4744 28.9165 80.4744ZM47.0437 36.1365V32.1494H57.3537V36.1365H51.9398C51.9378 36.1365 51.9362 36.1354 51.9342 36.1354C51.9322 36.1354 51.9306 36.1365 51.9286 36.1365H47.0437ZM45.8813 79.3103H38.1317V58.0572H45.8813V79.3103ZM54.7953 79.3103H47.0454V58.0572H54.7953V79.3103ZM63.7092 79.3103H55.9594V58.0572H63.7092V79.3103ZM72.3421 79.3103H64.8733V58.0572H72.3421V79.3103ZM50.4007 46.3168C50.8672 46.5358 51.3857 46.6619 51.9342 46.6619C52.3662 46.6619 52.7788 46.582 53.1633 46.4429L70.8 56.8931H31.1812L50.4007 46.3168ZM29.4986 58.0572H36.9676V79.3103H29.4986V58.0572Z" fill="#02073E"/>
</svg>
