<svg width="132" height="132" viewBox="0 0 132 132" fill="none" xmlns="http://www.w3.org/2000/svg">
<circle cx="66" cy="66" r="65.5" stroke="#02073E"/>
<path d="M65.7959 72.732C56.2077 72.732 51.1919 59.0626 51.1919 51.735C51.1919 50.8911 51.2665 50.0353 51.4195 49.1189C51.4724 48.8028 51.7444 48.5713 52.0628 48.5713H79.5266C79.845 48.5713 80.117 48.8026 80.1699 49.1185C80.3249 50.0429 80.4003 50.8988 80.4003 51.735C80.4003 59.0626 75.3843 72.732 65.7959 72.732ZM52.624 49.884C52.5385 50.5241 52.4967 51.134 52.4967 51.735C52.4967 55.6052 53.8811 60.5456 56.0235 64.3215C57.8609 67.5595 61.0477 71.4195 65.7957 71.4195C70.5441 71.4195 73.7309 67.5595 75.5683 64.3215C77.7109 60.5458 79.0953 55.6052 79.0953 51.735C79.0953 51.1389 79.0527 50.5289 78.9658 49.884H52.624Z" fill="#02073E"/>
<path d="M62.3617 29.6806C62.0261 29.6806 61.7428 29.4231 61.7123 29.0836C61.7088 29.0448 61.704 28.9916 61.6988 28.9754C61.6449 28.8069 61.661 28.6233 61.7436 28.4668C61.8261 28.3104 61.968 28.194 62.1371 28.1444L62.1791 28.1319C62.3761 28.0738 62.589 28.1127 62.7533 28.2368C62.9176 28.361 63.0143 28.5553 63.0143 28.762V29.0243C63.0143 29.3752 62.7398 29.6642 62.3914 29.68C62.3816 29.6804 62.3715 29.6806 62.3617 29.6806Z" fill="#02073E"/>
<path d="M81.0886 45.1479H49.9919C49.6362 45.1479 49.3463 44.8615 49.3395 44.5039L49.332 44.1019C49.332 37.8379 52.9582 32.0566 58.57 29.361C58.7719 29.264 59.0097 29.2779 59.1991 29.3981C59.3887 29.5184 59.5035 29.7279 59.5035 29.9532V33.5123C59.5035 33.722 59.6708 33.8927 59.8765 33.8927H61.3288C61.5369 33.8927 61.7042 33.7301 61.7098 33.5224C61.7193 33.1665 62.009 32.8836 62.3618 32.8836C62.3646 32.8836 62.3677 32.8836 62.3707 32.8836C62.7275 32.8882 63.0144 33.1806 63.0144 33.5398V35.9749C63.0144 36.6447 63.5583 37.1895 64.2268 37.1895H66.8486C67.5214 37.1895 68.0686 36.6445 68.0686 35.9749V33.5396C68.0686 33.18 68.3565 32.8872 68.714 32.8834C69.0682 32.8821 69.3656 33.1657 69.3732 33.5255C69.3776 33.7313 69.5447 33.8925 69.7536 33.8925H71.1987C71.405 33.8925 71.5795 33.7184 71.5795 33.5121V29.953C71.5795 29.7277 71.6943 29.518 71.8841 29.3979C72.0733 29.2775 72.3111 29.2636 72.5134 29.3608C78.1235 32.057 81.7488 37.8383 81.7488 44.0894L81.741 44.5039C81.7341 44.8615 81.4442 45.1479 81.0886 45.1479ZM50.6389 43.8351H80.4418C80.3553 38.5451 77.4393 33.6428 72.8843 31.0357V33.5119C72.8843 34.4454 72.1282 35.2048 71.1987 35.2048H69.7536C69.6227 35.2048 69.4957 35.1902 69.3734 35.1627V35.9745C69.3734 37.3681 68.2407 38.5018 66.8484 38.5018H64.2266C62.8385 38.5018 61.7094 37.3681 61.7094 35.9745V35.1623C61.5874 35.1902 61.4599 35.2048 61.3288 35.2048H59.8765C58.9512 35.2048 58.1987 34.4454 58.1987 33.5119V31.0357C53.6455 33.6399 50.7295 38.538 50.6389 43.8351Z" fill="#02073E"/>
<path d="M68.721 29.6804C68.3607 29.6804 68.0686 29.3866 68.0686 29.0242V28.7619C68.0686 28.5485 68.1717 28.3485 68.345 28.2256C68.5184 28.1026 68.7401 28.0721 68.94 28.1437L68.9745 28.1562C69.294 28.2707 69.4729 28.6122 69.3865 28.9421C69.3778 28.9752 69.3736 29.0021 69.3736 29.0244C69.3736 29.3866 69.0813 29.6804 68.721 29.6804Z" fill="#02073E"/>
<path d="M81.4264 49.884H49.6491C48.5255 49.884 47.6111 48.9688 47.6111 47.844V45.891C47.6111 44.7577 48.5253 43.8359 49.6491 43.8359H81.4264C82.5528 43.8359 83.469 44.7577 83.469 45.891V47.844C83.469 48.9686 82.5526 49.884 81.4264 49.884ZM49.6491 45.1484C49.2448 45.1484 48.9161 45.4815 48.9161 45.8908V47.8438C48.9161 48.2448 49.245 48.5712 49.6491 48.5712H81.4264C81.8331 48.5712 82.1642 48.2448 82.1642 47.8438V45.8908C82.1642 45.4744 81.8401 45.1484 81.4264 45.1484H49.6491Z" fill="#02073E"/>
<path d="M66.849 38.4744H64.2271C62.8391 38.4744 61.71 37.3352 61.71 35.9348V28.5395C61.71 27.1392 62.8391 26 64.2271 26H66.849C68.2412 26 69.374 27.1392 69.374 28.5395V35.9348C69.374 37.3352 68.2412 38.4744 66.849 38.4744ZM64.2271 27.3127C63.5586 27.3127 63.0148 27.863 63.0148 28.5395V35.9348C63.0148 36.6114 63.5586 37.1617 64.2271 37.1617H66.849C67.5217 37.1617 68.0689 36.6112 68.0689 35.9348V28.5395C68.0689 27.863 67.5215 27.3127 66.849 27.3127H64.2271Z" fill="#02073E"/>
<path d="M72.4503 42.0742H68.9742C68.6139 42.0742 68.3218 41.7804 68.3218 41.418C68.3218 41.0556 68.6139 40.7617 68.9742 40.7617H72.4503C72.8106 40.7617 73.1027 41.0556 73.1027 41.418C73.1027 41.7804 72.8106 42.0742 72.4503 42.0742Z" fill="#02073E"/>
<path d="M66.0761 42.0742H54.21C53.8497 42.0742 53.5576 41.7804 53.5576 41.418C53.5576 41.0556 53.8497 40.7617 54.21 40.7617H66.0761C66.4364 40.7617 66.7285 41.0556 66.7285 41.418C66.7285 41.7804 66.4364 42.0742 66.0761 42.0742Z" fill="#02073E"/>
<path d="M61.3294 35.206H59.877C58.9517 35.206 58.1992 34.4466 58.1992 33.5131V29.0524C58.1992 28.1177 58.9519 27.3573 59.877 27.3573H61.3294C62.2546 27.3573 63.0075 28.1177 63.0075 29.0524V33.5131C63.0073 34.4466 62.2546 35.206 61.3294 35.206ZM59.877 28.6698C59.6643 28.6698 59.504 28.8342 59.504 29.0524V33.5131C59.504 33.7228 59.6713 33.8935 59.877 33.8935H61.3294C61.5316 33.8935 61.7025 33.7194 61.7025 33.5131V29.0524C61.7025 28.8379 61.5386 28.6698 61.3294 28.6698H59.877Z" fill="#02073E"/>
<path d="M71.1992 35.206H69.7541C68.825 35.206 68.0691 34.4466 68.0691 33.5131V29.0524C68.0691 28.1177 68.825 27.3573 69.7541 27.3573H71.1992C72.1287 27.3573 72.8848 28.1177 72.8848 29.0524V33.5131C72.8846 34.4466 72.1287 35.206 71.1992 35.206ZM69.7539 28.6698C69.5408 28.6698 69.3737 28.8379 69.3737 29.0524V33.5131C69.3737 33.7194 69.5478 33.8935 69.7539 33.8935H71.199C71.4019 33.8935 71.5798 33.7157 71.5798 33.5131V29.0524C71.5798 28.8415 71.4089 28.6698 71.199 28.6698H69.7539Z" fill="#02073E"/>
<path d="M86.8368 95.5801H77.0911C76.2302 95.5801 75.5298 94.8757 75.5298 94.0095V87.8479C75.5298 86.9819 76.23 86.2771 77.0911 86.2771H86.8368C87.6977 86.2771 88.3981 86.9817 88.3981 87.8479V94.0095C88.3981 94.8755 87.6977 95.5801 86.8368 95.5801ZM77.0911 87.59C76.9522 87.59 76.8348 87.7081 76.8348 87.8479V94.0095C76.8348 94.1565 76.945 94.2674 77.0911 94.2674H86.8368C86.9832 94.2674 87.0931 94.1563 87.0931 94.0095V87.8479C87.0931 87.7081 86.9757 87.59 86.8368 87.59H77.0911Z" fill="#02073E"/>
<path d="M81.9625 87.5889C81.602 87.5889 81.3101 87.2951 81.3101 86.9325V84.7722C81.3101 84.4098 81.602 84.116 81.9625 84.116C82.3227 84.116 82.6149 84.4098 82.6149 84.7722V86.9325C82.6149 87.2951 82.3227 87.5889 81.9625 87.5889Z" fill="#02073E"/>
<path d="M52.0082 96.6035H45.5796C45.2194 96.6035 44.9272 96.3097 44.9272 95.9473C44.9272 95.5849 45.2194 95.291 45.5796 95.291H52.0082C52.3685 95.291 52.6606 95.5849 52.6606 95.9473C52.6606 96.3097 52.3685 96.6035 52.0082 96.6035Z" fill="#02073E"/>
<path d="M65.5927 106C56.2359 106 46.8131 104.906 37.586 102.747C37.2904 102.678 37.0813 102.414 37.0813 102.108C37.0813 99.7613 37.055 97.7404 37.0315 95.9577C36.8706 83.6618 36.9613 83.4964 46.716 78.2662C48.6943 77.2055 51.1564 75.8855 54.1003 74.1924C54.2523 74.1049 54.4331 74.0828 54.6014 74.1305C54.7698 74.1783 54.9122 74.2923 54.9962 74.4466L61.5245 86.4343L65.3438 82.6183C65.5925 82.3696 65.9926 82.3633 66.2491 82.6046L69.71 85.8591L76.6154 74.4211C76.7992 74.1172 77.1904 74.0155 77.4972 74.1922C80.3652 75.8429 82.7822 77.1446 84.724 78.1908C94.6192 83.5213 94.7113 83.6887 94.5553 96.0887C94.5335 97.837 94.5084 99.8183 94.5084 102.108C94.5084 102.415 94.2973 102.681 94 102.748C84.5062 104.906 74.9489 106 65.5927 106ZM38.3857 101.586C47.3551 103.644 56.5053 104.687 65.5927 104.687C74.6856 104.687 83.972 103.643 93.204 101.582C93.2076 99.5057 93.2303 97.6894 93.2505 96.0723C93.325 90.1362 93.3626 87.1568 92.2597 85.1446C91.167 83.151 88.8081 81.88 84.1079 79.3482C82.2844 78.3659 80.0437 77.1588 77.4013 75.6483L70.4086 87.2309C70.3065 87.3997 70.1344 87.5134 69.94 87.5403C69.7448 87.5674 69.5488 87.5045 69.4056 87.3694L65.8175 83.9951L61.8289 87.9801C61.6833 88.1253 61.4786 88.1941 61.2756 88.164C61.0727 88.1344 60.8954 88.0107 60.7969 87.8297L54.1707 75.6625C51.4648 77.2073 49.1853 78.4296 47.3298 79.4242C42.7019 81.9056 40.3791 83.1512 39.3053 85.1177C38.2207 87.1039 38.2593 90.0571 38.3363 95.9403C38.3578 97.5938 38.3823 99.4513 38.3857 101.586Z" fill="#02073E"/>
<path d="M69.8512 87.5484C69.6867 87.5484 69.5271 87.4858 69.4057 87.3715L65.3581 83.5654C65.1171 83.3385 65.0823 82.966 65.2775 82.6981L73.4662 71.4538C73.5758 71.3038 73.7437 71.2071 73.9279 71.1887C74.1126 71.1705 74.2958 71.2314 74.4327 71.3572L77.6133 74.2793C77.8435 74.4906 77.8928 74.8366 77.7309 75.1046L70.4087 87.2328C70.3066 87.4016 70.1345 87.5153 69.94 87.5422C69.9101 87.5464 69.8805 87.5484 69.8512 87.5484ZM66.6722 83.004L69.71 85.861L76.337 74.8845L74.0891 72.8195L66.6722 83.004Z" fill="#02073E"/>
<path d="M61.3691 88.1728C61.3381 88.1728 61.3067 88.1706 61.2756 88.1661C61.0727 88.1366 60.8954 88.0126 60.7969 87.8318L53.852 75.0791C53.7073 74.8136 53.7622 74.483 53.9847 74.2789L57.1728 71.3568C57.3095 71.2314 57.4922 71.1704 57.6772 71.1888C57.8614 71.2072 58.029 71.3036 58.1384 71.4539L66.3298 82.6981C66.5206 82.9602 66.4924 83.323 66.2632 83.5518L61.8287 87.9825C61.7058 88.1051 61.5402 88.1728 61.3691 88.1728ZM55.2431 74.9012L61.5247 86.4362L64.9457 83.0183L57.5154 72.8186L55.2431 74.9012Z" fill="#02073E"/>
<path d="M52.0084 99.4561H45.5799C45.2196 99.4561 44.9275 99.1624 44.9275 98.7998C44.9275 98.4374 45.2196 98.1436 45.5799 98.1436H52.0084C52.3687 98.1436 52.6608 98.4374 52.6608 98.7998C52.6608 99.1624 52.3687 99.4561 52.0084 99.4561Z" fill="#02073E"/>
<path d="M67.8668 88.5575H63.6136C63.2533 88.5575 62.9612 88.2636 62.9612 87.9012V85.2712C62.9612 85.096 63.0309 84.928 63.1548 84.8046L64.2967 83.6685C64.419 83.5467 64.5838 83.4788 64.7555 83.4788H66.911C67.0746 83.4788 67.2327 83.5408 67.3533 83.6523L68.3091 84.5389C68.443 84.6632 68.5192 84.838 68.5192 85.0214V87.9012C68.5194 88.2636 68.2273 88.5575 67.8668 88.5575ZM64.2662 87.245H67.2146V85.3092L66.6563 84.7913H65.0241L64.2664 85.5452L64.2662 87.245Z" fill="#02073E"/>
<path d="M69.6024 105.936H61.4386C61.2512 105.936 61.0731 105.855 60.9493 105.714C60.8254 105.573 60.7679 105.385 60.7912 105.198L62.9664 87.8196C63.0074 87.4914 63.2848 87.2452 63.6136 87.2452H67.8667C68.2019 87.2452 68.4826 87.5007 68.5159 87.836L70.2516 105.214C70.2699 105.399 70.21 105.582 70.0861 105.72C69.9625 105.858 69.7868 105.936 69.6024 105.936ZM62.1783 104.623H68.881L67.2767 88.5579H64.1892L62.1783 104.623Z" fill="#02073E"/>
<path d="M52.0082 90.9539H45.5796C45.2194 90.9539 44.9272 90.66 44.9272 90.2976C44.9272 89.9352 45.2194 89.6414 45.5796 89.6414H52.0082C52.3685 89.6414 52.6606 89.9352 52.6606 90.2976C52.6606 90.66 52.3685 90.9539 52.0082 90.9539Z" fill="#02073E"/>
<path d="M52.0082 93.8059H45.5796C45.2194 93.8059 44.9272 93.5123 44.9272 93.1497C44.9272 92.7873 45.2194 92.4934 45.5796 92.4934H52.0082C52.3685 92.4934 52.6606 92.7873 52.6606 93.1497C52.6606 93.5123 52.3685 93.8059 52.0082 93.8059Z" fill="#02073E"/>
</svg>
