<svg width="132" height="132" viewBox="0 0 132 132" fill="none" xmlns="http://www.w3.org/2000/svg">
<circle cx="66" cy="66" r="65.5" stroke="#02073E"/>
<path d="M90.3136 46.1267C90.2653 45.9522 90.1628 45.798 90.0213 45.6868C89.8797 45.5756 89.7066 45.5132 89.5273 45.5088C83.8507 45.3664 77.6383 41.9236 72.9103 36.2991C72.8315 36.2054 72.7335 36.1302 72.6231 36.0785C72.5126 36.0269 72.3924 36.0001 72.2707 36H60.7291C60.6075 36.0001 60.4872 36.0269 60.3768 36.0785C60.2664 36.1302 60.1684 36.2054 60.0896 36.2991C55.3615 41.9236 49.1492 45.3664 43.4726 45.5107C43.2933 45.5151 43.1202 45.5775 42.9786 45.6888C42.8371 45.8 42.7346 45.9542 42.6863 46.1286C41.229 51.2281 40.7096 56.5543 41.154 61.843C41.5966 66.7372 42.941 71.5047 45.1178 75.8999C49.3252 84.4268 56.5802 91.6897 66.1006 96.8977C66.2232 96.9648 66.3605 97 66.4999 97C66.6394 97 66.7767 96.9648 66.8992 96.8977C76.4196 91.6897 83.6747 84.4287 87.882 75.8999C90.0589 71.5047 91.4033 66.7372 91.8459 61.843C92.2905 56.5536 91.7711 51.2268 90.3136 46.1267ZM66.4999 95.187C47.6059 84.6622 39.0847 66.3472 44.1407 47.1748C50.0082 46.8042 56.2822 43.3049 61.1142 37.6942H71.889C76.7157 43.3043 82.9917 46.8042 88.8592 47.1748C93.9151 66.3472 85.394 84.6622 66.4999 95.187ZM86.2887 49.4121C80.914 48.4178 75.4905 45.2523 71.0124 40.4989C70.934 40.4159 70.8397 40.3499 70.7352 40.3048C70.6307 40.2597 70.5183 40.2365 70.4047 40.2365H62.5952C62.4816 40.2365 62.3691 40.2597 62.2647 40.3048C62.1602 40.3499 62.0659 40.4159 61.9874 40.4989C57.5074 45.2523 52.084 48.4178 46.7112 49.4121C46.5478 49.4422 46.397 49.5206 46.2778 49.6374C46.1587 49.7541 46.0765 49.904 46.0418 50.068C45.1432 54.2619 44.9559 58.5795 45.4879 62.8367C46.0093 66.838 47.2043 70.7197 49.0213 74.3139C52.532 81.2849 58.4274 87.4033 66.0701 92.0085C66.2 92.087 66.3486 92.1285 66.4999 92.1285C66.6513 92.1285 66.7999 92.087 66.9298 92.0085C74.5724 87.4033 80.4679 81.2849 83.9786 74.3139C85.7953 70.7205 86.9903 66.8397 87.5119 62.8393C88.044 58.5821 87.8567 54.2646 86.9581 50.0707C86.9239 49.9061 86.842 49.7556 86.7228 49.6383C86.6035 49.521 86.4524 49.4423 86.2887 49.4121ZM66.4999 90.2919C51.3827 80.9957 44.5108 66.7132 47.5728 50.968C53.0053 49.8221 58.4339 46.6337 62.9523 41.9308H70.0476C74.5659 46.6337 79.9946 49.8221 85.4271 50.968C88.4891 66.7132 81.6171 80.9957 66.4999 90.2919ZM66.4999 55.9293C64.4925 55.9292 62.5301 56.5304 60.8609 57.657C59.1917 58.7836 57.8907 60.3849 57.1224 62.2585C56.3542 64.132 56.1531 66.1937 56.5447 68.1827C56.9363 70.1717 57.903 71.9987 59.3225 73.4327C60.742 74.8666 62.5505 75.8432 64.5194 76.2388C66.4882 76.6344 68.529 76.4313 70.3837 75.6552C72.2383 74.879 73.8234 73.5648 74.9386 71.8785C76.0538 70.1923 76.649 68.2098 76.6488 66.1819C76.6457 63.4637 75.5755 60.8577 73.6729 58.9356C71.7703 57.0136 69.1906 55.9324 66.4999 55.9293ZM66.4999 74.7402C64.8244 74.7402 63.1864 74.2383 61.7933 73.2979C60.4001 72.3575 59.3142 71.0209 58.673 69.457C58.0318 67.8932 57.864 66.1724 58.1909 64.5122C58.5178 62.8521 59.3247 61.3271 60.5095 60.1302C61.6943 58.9333 63.2038 58.1182 64.8472 57.788C66.4905 57.4577 68.1939 57.6272 69.742 58.275C71.29 58.9227 72.6131 60.0197 73.544 61.4271C74.4749 62.8345 74.9717 64.4892 74.9717 66.1819C74.9693 68.4509 74.076 70.6264 72.4878 72.2309C70.8995 73.8353 68.7461 74.7378 66.4999 74.7402ZM71.8948 62.232C72.0519 62.391 72.1402 62.6065 72.1402 62.8311C72.1402 63.0558 72.0519 63.2713 71.8948 63.4303L65.7266 69.6615C65.5699 69.8196 65.3576 69.9087 65.1361 69.9093C64.9146 69.9099 64.7019 69.822 64.5443 69.6648L61.1109 66.2376C60.9595 66.0782 60.8757 65.8655 60.8773 65.6446C60.8789 65.4237 60.9659 65.2122 61.1196 65.0551C61.2733 64.898 61.4817 64.8077 61.7003 64.8036C61.9189 64.7994 62.1305 64.8816 62.29 65.0327L65.1326 67.8708L70.7112 62.2346C70.8681 62.0763 71.0807 61.9872 71.3025 61.9867C71.5242 61.9862 71.7372 62.0744 71.8948 62.232Z" fill="#02073E"/>
</svg>
