<svg width="210" height="220" viewBox="0 0 210 220" fill="none" xmlns="http://www.w3.org/2000/svg">
<path d="M47.7717 137.324C46.0677 137.324 44.6797 138.712 44.6797 140.416C44.6797 142.12 46.0677 143.508 47.7717 143.508C49.4757 143.508 50.8637 142.12 50.8637 140.416C50.8637 138.712 49.4797 137.324 47.7717 137.324Z" fill="#F68F46"/>
<path d="M84.8889 137.324C83.1849 137.324 81.7969 138.712 81.7969 140.416C81.7969 142.12 83.1849 143.508 84.8889 143.508C86.5929 143.508 87.9809 142.12 87.9809 140.416C87.9809 138.712 86.5969 137.324 84.8889 137.324Z" fill="#F68F46"/>
<path d="M147.791 137.324C146.087 137.324 144.699 138.712 144.699 140.416C144.699 142.12 146.087 143.508 147.791 143.508C149.495 143.508 150.883 142.12 150.883 140.416C150.883 138.712 149.495 137.324 147.791 137.324Z" fill="#F68F46"/>
<path d="M173.567 149.696H171.503C170.367 149.696 169.439 148.772 169.439 147.632V111.544C169.439 110.404 168.515 109.48 167.375 109.48C166.235 109.48 165.311 110.404 165.311 111.544V120.824H157.063V111.544C157.063 106.996 153.363 103.296 148.815 103.296H107.575V72.3638C107.575 68.9518 104.799 66.1758 101.387 66.1758H77.7072C74.9432 66.1758 72.4952 68.0358 71.7512 70.6958L65.7992 91.9558H51.8952V82.6758H53.9592C55.0992 82.6758 56.0232 81.7518 56.0232 80.6118C56.0232 79.4718 55.0992 78.5478 53.9592 78.5478H45.7112C44.5712 78.5478 43.6472 79.4718 43.6472 80.6118C43.6472 81.7518 44.5712 82.6758 45.7112 82.6758H47.7752V91.9558H44.6792C41.2672 91.9558 38.4912 94.7318 38.4912 98.1438V130.76C35.9512 133.2 34.3672 136.628 34.3672 140.42C34.3672 147.812 40.3792 153.824 47.7712 153.824C54.4632 153.824 60.0232 148.896 61.0152 142.48H71.6432C72.6392 148.896 78.1992 153.824 84.8872 153.824C92.2792 153.824 98.2912 147.812 98.2912 140.42C98.2912 138 97.6432 135.732 96.5152 133.768L103.443 126.84V148.672C103.443 151.516 105.755 153.828 108.599 153.828H122.003C122.807 153.828 123.539 153.36 123.875 152.628C124.211 151.896 124.091 151.036 123.567 150.424L119.863 146.104C118.583 144.608 117.879 142.704 117.879 140.736V132.176C117.879 131.036 116.955 130.112 115.815 130.112H107.567V123.92H138.499V130.76C135.959 133.2 134.375 136.628 134.375 140.42C134.375 147.812 140.387 153.824 147.779 153.824C155.171 153.824 161.183 147.812 161.183 140.42C161.183 136.628 159.599 133.2 157.059 130.76V124.952H165.319V147.636C165.319 151.048 168.095 153.824 171.507 153.824H173.571C174.711 153.824 175.635 152.9 175.635 151.76C175.635 150.62 174.707 149.696 173.567 149.696ZM75.7232 71.8078C75.9712 70.9198 76.7872 70.2998 77.7072 70.2998H85.9192V89.8918C85.9192 91.0278 84.9952 91.9558 83.8552 91.9558H70.0752L75.7232 71.8078ZM47.7712 149.696C42.6552 149.696 38.4912 145.532 38.4912 140.416C38.4912 135.3 42.6552 131.136 47.7712 131.136C52.8872 131.136 57.0512 135.3 57.0512 140.416C57.0512 145.532 52.8912 149.696 47.7712 149.696ZM84.8912 149.696C79.9112 149.696 75.5152 145.532 75.5152 140.416C75.5152 135.316 79.9112 131.136 84.8912 131.136C90.0072 131.136 94.1712 135.3 94.1712 140.416C94.1712 145.532 90.0112 149.696 84.8912 149.696ZM113.763 134.232V140.728C113.763 143.68 114.819 146.54 116.743 148.78L117.531 149.696H108.611C108.043 149.696 107.579 149.232 107.579 148.664V134.228H113.763V134.232ZM147.791 149.696C142.675 149.696 138.511 145.532 138.511 140.416C138.511 135.3 142.675 131.136 147.791 131.136C152.907 131.136 157.071 135.3 157.071 140.416C157.071 145.532 152.907 149.696 147.791 149.696ZM147.791 127.012C145.963 127.012 144.223 127.38 142.635 128.044V121.856C142.635 120.716 141.711 119.792 140.571 119.792H105.515C105.447 119.792 105.379 119.796 105.311 119.804C105.259 119.808 105.211 119.816 105.159 119.828C105.143 119.832 105.127 119.832 105.111 119.836C105.051 119.848 104.991 119.864 104.935 119.88C104.927 119.88 104.923 119.884 104.915 119.884C104.855 119.9 104.799 119.924 104.743 119.944C104.739 119.948 104.731 119.948 104.727 119.952C104.675 119.976 104.623 120 104.571 120.028C104.563 120.032 104.555 120.036 104.547 120.04C104.499 120.064 104.455 120.092 104.411 120.124C104.399 120.132 104.387 120.14 104.375 120.148C104.335 120.176 104.295 120.208 104.255 120.236C104.239 120.248 104.227 120.256 104.211 120.268C104.163 120.308 104.119 120.348 104.079 120.388C104.075 120.392 104.067 120.396 104.063 120.404L93.9352 130.532C91.5512 128.352 88.3792 127.02 84.8992 127.02C78.2072 127.02 72.6472 131.948 71.6552 138.364H61.0192C60.0232 131.948 54.4632 127.02 47.7752 127.02C45.9472 127.02 44.2072 127.388 42.6192 128.052V98.1478C42.6192 97.0118 43.5432 96.0838 44.6832 96.0838H83.8672C87.2792 96.0838 90.0552 93.3078 90.0552 89.8958V70.3038H101.399C102.535 70.3038 103.463 71.2278 103.463 72.3678V103.3H99.3392C98.8232 103.3 98.3232 103.496 97.9432 103.844L85.0552 115.7C84.2152 116.472 84.1632 117.776 84.9352 118.612C85.7072 119.452 87.0112 119.504 87.8472 118.732L100.143 107.42H148.831C151.107 107.42 152.955 109.272 152.955 111.544V128.044C151.359 127.38 149.615 127.012 147.791 127.012Z" fill="#F68F46"/>
<path d="M52.9273 102.268C51.7873 102.268 50.8633 103.192 50.8633 104.332V117.736C50.8633 118.876 51.7873 119.8 52.9273 119.8C54.0673 119.8 54.9913 118.876 54.9913 117.736V104.332C54.9913 103.188 54.0673 102.268 52.9273 102.268Z" fill="#F68F46"/>
<path d="M63.2398 102.268C62.0998 102.268 61.1758 103.192 61.1758 104.332V117.736C61.1758 118.876 62.0998 119.8 63.2398 119.8C64.3798 119.8 65.3038 118.876 65.3038 117.736V104.332C65.3038 103.188 64.3798 102.268 63.2398 102.268Z" fill="#F68F46"/>
</svg>
