<svg width="132" height="132" viewBox="0 0 132 132" fill="none" xmlns="http://www.w3.org/2000/svg">
<circle cx="66" cy="66" r="65.5" stroke="#000003"/>
<path d="M87.9913 78.1854V48.9798C87.9846 45.8403 85.4611 43.9668 83.0222 43.9668C83.0195 43.9668 83.0175 43.9668 83.0141 43.9668C81.7635 43.9681 80.5215 44.4564 79.6102 45.3053C79.5967 45.3175 79.5867 45.3311 79.574 45.3433V39.8271C79.5666 36.6869 77.0431 34.8134 74.6048 34.8134C74.6008 34.8134 74.5988 34.8134 74.5961 34.8134C73.3454 34.8147 72.1035 35.3036 71.1928 36.1519C71.1586 36.1831 71.1298 36.2183 71.0963 36.2509C70.7194 33.5745 68.4199 32 66.1862 32C66.1842 32 66.1815 32 66.1781 32C64.9281 32.0014 63.6869 32.4903 62.7748 33.3385C61.7703 34.2736 61.2177 35.585 61.2211 37.0314V38.753C60.2782 37.8573 59.0141 37.3677 57.7682 37.3677C57.7668 37.3677 57.7641 37.3677 57.7608 37.3677C56.5108 37.3697 55.2695 37.8579 54.3568 38.7055C53.353 39.6413 52.7997 40.9527 52.8031 42.3977V58.4852C51.5866 57.091 49.7981 56.3207 48.0432 56.3207C48.0405 56.3207 48.0371 56.3207 48.0338 56.3207C46.4331 56.3241 46.3627 56.3255 46.3311 56.3255C46.3097 56.3255 46.3103 56.3255 45.7591 56.3255C45.3386 56.3255 45 56.6672 45 57.0931V78.2716H45.002C45.0469 90.26 54.6566 100 66.4645 100C78.3394 100 88 90.2146 88 78.1861H87.9913V78.1854ZM66.4651 98.4641C55.4667 98.4641 46.5176 89.367 46.5176 78.1834V57.8579C46.7026 57.8566 47.111 57.8566 48.0351 57.8552C48.0385 57.8552 48.0412 57.8552 48.0432 57.8552C50.3473 57.8552 52.7964 59.5369 52.8024 62.6554V75.1999H53.5615C57.4228 75.1999 61.0997 76.3302 64.2213 78.3733L64.2273 78.3604C64.3219 78.4024 64.4258 78.4282 64.5345 78.4282C64.9543 78.4282 65.2936 78.0851 65.2936 77.6606C65.2936 77.3853 65.1407 77.1527 64.9234 77.0178L64.9295 77.009C61.7971 74.989 58.1558 73.8152 54.3213 73.6789V42.3963C54.3186 41.0998 54.8993 40.2875 55.3855 39.8352C56.0213 39.2433 56.8877 38.9029 57.7641 38.9015C57.7655 38.9015 57.7668 38.9015 57.7695 38.9015C59.44 38.9015 61.2157 40.1214 61.2204 42.3821V66.4689C61.2204 66.8934 61.5597 67.2365 61.9795 67.2365C62.3993 67.2365 62.7379 66.8934 62.7379 66.4689V37.028C62.7353 35.7322 63.3153 34.9205 63.8022 34.4669C64.4379 33.8749 65.3043 33.5352 66.1815 33.5338C66.1828 33.5338 66.1841 33.5338 66.1868 33.5338C67.8566 33.5338 69.633 34.753 69.6377 37.0137V66.4682C69.6377 66.8927 69.977 67.2358 70.3968 67.2358C70.8166 67.2358 71.1553 66.8927 71.1553 66.4682V39.8407C71.1533 38.5448 71.7333 37.7325 72.2195 37.2795C72.8546 36.6876 73.7217 36.3485 74.5988 36.3472C74.6001 36.3472 74.6021 36.3472 74.6048 36.3472C76.2746 36.3472 78.0504 37.5664 78.0557 39.8271V65.9976V66.4174H78.0664C78.0651 66.435 78.0557 66.4506 78.0557 66.4682C78.0557 66.8927 78.3944 67.2358 78.8148 67.2358C79.2346 67.2358 79.574 66.8927 79.574 66.4682C79.574 66.4506 79.5639 66.435 79.5626 66.4174H79.574V65.9976V48.9941C79.5713 47.6983 80.1507 46.8866 80.6375 46.433C81.2726 45.8417 82.1397 45.5019 83.0175 45.5006C83.0188 45.5006 83.0201 45.5006 83.0222 45.5006C84.6926 45.5006 86.469 46.7198 86.4737 48.9805V78.1834H86.4838C86.4831 89.367 77.5031 98.4641 66.4651 98.4641Z" fill="#000003"/>
</svg>
