<svg width="132" height="132" viewBox="0 0 132 132" fill="none" xmlns="http://www.w3.org/2000/svg">
<circle cx="66" cy="66" r="65.5" stroke="#000003"/>
<path d="M51.5776 96.2886C52.4665 97.8219 54.1331 98.7997 55.9109 98.7997H76.1109C77.8887 98.7997 79.5554 97.8441 80.4442 96.2886L90.5554 78.7997C91.4442 77.2664 91.4442 75.333 90.5554 73.7997L80.4442 56.3108C79.5554 54.7775 77.8887 53.7997 76.1109 53.7997H75.2442V33.7997C75.2442 33.4886 74.9998 33.2441 74.6887 33.2441H56.9109C56.5998 33.2441 56.3554 33.4886 56.3554 33.7997V53.7997H55.9109C54.1331 53.7997 52.4665 54.7553 51.5776 56.3108L41.4665 73.7775C40.5776 75.3108 40.5776 77.2441 41.4665 78.7775L51.5776 96.2886ZM57.4665 34.333H74.1331V53.7775H66.3554V40.4441C66.3554 40.133 66.1109 39.8886 65.7998 39.8886C65.4887 39.8886 65.2442 40.133 65.2442 40.4441V53.7775H57.4665V34.333ZM42.422 74.333L52.5331 56.8441C53.222 55.6441 54.5109 54.8886 55.9109 54.8886H76.1109C77.4887 54.8886 78.7776 55.6441 79.4887 56.8441L89.5998 74.333C90.2887 75.533 90.2887 77.0219 89.5998 78.2219L79.4887 95.7108C78.7998 96.9108 77.5109 97.6664 76.1109 97.6664H55.9109C54.5331 97.6664 53.2442 96.933 52.5331 95.7108L42.422 78.2219C41.7331 77.0219 41.7331 75.533 42.422 74.333Z" fill="#000003"/>
<path d="M65.8001 94.3332C66.1112 94.3332 66.3557 94.0888 66.3557 93.7777C66.3557 93.4666 66.1112 93.2221 65.8001 93.2221C56.3112 93.2221 48.5779 85.4888 48.5779 75.9999C48.5779 75.6888 48.3335 75.4443 48.0224 75.4443C47.7112 75.4443 47.4668 75.6888 47.4668 75.9999C47.4668 86.111 55.689 94.3332 65.8001 94.3332Z" fill="#000003"/>
<path d="M65.7997 58.7771C75.2886 58.7771 83.0219 66.5105 83.0219 75.9993C83.0219 76.3105 83.2664 76.5549 83.5775 76.5549C83.8886 76.5549 84.133 76.3105 84.133 75.9993C84.133 65.8882 75.9108 57.666 65.7997 57.666C65.4886 57.666 65.2441 57.9105 65.2441 58.2216C65.2441 58.5327 65.4886 58.7771 65.7997 58.7771Z" fill="#000003"/>
<path d="M59.243 78.821L57.843 87.021C57.7985 87.221 57.8874 87.4433 58.0652 87.5544C58.243 87.6877 58.4652 87.6877 58.643 87.5988L65.9985 83.7321L73.3541 87.5988C73.443 87.6432 73.5319 87.6655 73.6208 87.6655C73.7319 87.6655 73.843 87.621 73.9541 87.5544C74.1319 87.421 74.2208 87.221 74.1763 87.021L72.7763 78.821L78.7319 73.021C78.8874 72.8655 78.9319 72.6433 78.8652 72.4433C78.7985 72.2433 78.6208 72.0877 78.4208 72.0655L70.1985 70.8655L66.5096 63.421C66.3319 63.0433 65.7096 63.0433 65.5096 63.421L61.8208 70.8655L53.5985 72.0655C53.3985 72.0877 53.2208 72.2433 53.1541 72.4433C53.0874 72.6433 53.1541 72.8655 53.2874 73.021L59.243 78.821ZM62.2652 71.9321C62.443 71.9099 62.5985 71.7988 62.6874 71.621L65.9985 64.9321L69.3096 71.6433C69.3985 71.7988 69.5541 71.9321 69.7319 71.9544L77.1319 73.021L71.7763 78.221C71.643 78.3544 71.5763 78.5321 71.6208 78.7099L72.8874 86.0877L66.2652 82.5988C66.1096 82.5099 65.9096 82.5099 65.7541 82.5988L59.1319 86.0877L60.3985 78.7099C60.4207 78.5321 60.3763 78.3544 60.243 78.221L54.8874 72.9988L62.2652 71.9321Z" fill="#000003"/>
</svg>
