<svg width="132" height="132" viewBox="0 0 132 132" fill="none" xmlns="http://www.w3.org/2000/svg">
<circle cx="66" cy="66" r="65.5" stroke="#000003"/>
<path d="M61.3601 78H45.6399C45.4694 78.0018 45.3066 78.0556 45.1869 78.1498C45.0671 78.244 45 78.371 45 78.5034C45 78.6351 45.0674 78.7614 45.1874 78.8545C45.3074 78.9477 45.4702 79 45.6399 79H61.3601C61.4442 79 61.5274 78.9872 61.605 78.9622C61.6826 78.9372 61.7532 78.9007 61.8126 78.8545C61.872 78.8084 61.9191 78.7537 61.9513 78.6934C61.9835 78.6332 62 78.5686 62 78.5034C62 78.371 61.9329 78.244 61.8131 78.1498C61.6934 78.0556 61.5306 78.0018 61.3601 78Z" fill="#000003"/>
<path d="M73.3706 66.0203C73.3708 65.4372 73.2521 64.8611 73.0228 64.3331C72.7936 63.8051 72.4595 63.3381 72.0442 62.9653L77.9205 51.9871C78.0001 51.834 78.0209 51.6533 77.9785 51.4838C77.9361 51.3144 77.8339 51.1696 77.6938 51.0805C77.5506 50.9977 77.3833 50.9779 77.2268 51.0252C77.0704 51.0725 76.9369 51.1833 76.8544 51.3344L70.9781 62.3126C70.5612 62.1341 70.1169 62.0418 69.6685 62.0406C68.9403 62.0442 68.2295 62.2806 67.6257 62.7201C67.0218 63.1596 66.5521 63.7824 66.2757 64.5099C65.9994 65.2374 65.9288 66.037 66.0729 66.8078C66.217 67.5786 66.5693 68.286 67.0853 68.8408C67.6014 69.3955 68.2581 69.7728 68.9725 69.9248C69.6869 70.0769 70.427 69.9971 71.0994 69.6953C71.7718 69.3936 72.3464 68.8835 72.7506 68.2294C73.1548 67.5754 73.3705 66.8067 73.3706 66.0203ZM67.2592 66.0203C67.2592 65.4992 67.4027 64.9899 67.6713 64.557C67.9399 64.1241 68.3216 63.7871 68.768 63.589C69.2143 63.3908 69.705 63.3404 70.178 63.444C70.6509 63.5477 71.0846 63.8008 71.424 64.1712C71.7635 64.5416 71.9933 65.0126 72.0844 65.5243C72.1755 66.0361 72.1236 66.5655 71.9355 67.0454C71.7474 67.5253 71.4314 67.9339 71.0278 68.2195C70.6242 68.5051 70.151 68.6547 69.6685 68.6493C69.0272 68.6421 68.4144 68.362 67.9633 67.8697C67.5122 67.3775 67.2592 66.7129 67.2592 66.0203Z" fill="#000003"/>
<path d="M69.6813 43C69.5022 43 69.3302 43.0696 69.2027 43.1936C69.0752 43.3177 69.0024 43.4864 69 43.663C69.0024 43.8405 69.0749 44.0101 69.2022 44.1356C69.3294 44.2612 69.5013 44.3327 69.6813 44.335C75.5068 44.335 81.0938 46.6176 85.213 50.6805C89.3323 54.7435 91.6465 60.2541 91.6465 66C91.6465 71.7459 89.3323 77.2565 85.213 81.3195C81.0938 85.3824 75.5068 87.665 69.6813 87.665C69.5013 87.6673 69.3294 87.7388 69.2022 87.8644C69.0749 87.9899 69.0024 88.1595 69 88.337C69.0024 88.5136 69.0752 88.6823 69.2027 88.8064C69.3302 88.9305 69.5022 89 69.6813 89C75.8658 89 81.797 86.5768 86.1701 82.2635C90.5432 77.9501 93 72.1 93 66C93 59.9 90.5432 54.0499 86.1701 49.7365C81.797 45.4232 75.8658 43 69.6813 43Z" fill="#000003"/>
<path d="M55.2845 66.3113C55.2875 64.1559 55.7918 62.0303 56.758 60.1002C57.7243 58.1701 59.1264 56.4877 60.8551 55.184C62.5838 53.8804 64.5923 52.9909 66.7241 52.5847C68.8559 52.1785 71.0534 52.2667 73.1453 52.8424C73.3172 52.8892 73.5009 52.8665 73.6561 52.7794C73.8113 52.6923 73.9255 52.5478 73.9739 52.3774C73.9985 52.2928 74.0058 52.2042 73.9955 52.1168C73.9851 52.0294 73.9573 51.9449 73.9137 51.8683C73.8701 51.7917 73.8115 51.7245 73.7415 51.6706C73.6714 51.6167 73.5912 51.5773 73.5055 51.5545C72.1501 51.1839 70.7503 50.9974 69.3443 51.0001C66.4806 50.9926 63.6722 51.7827 61.2381 53.2806C61.1814 53.2713 61.1236 53.2713 61.067 53.2806H45.1788C45.002 53.2806 44.8325 53.3504 44.7075 53.4745C44.5825 53.5986 44.5122 53.7669 44.5122 53.9425C44.5122 54.1188 44.5822 54.2881 44.7069 54.4136C44.8316 54.5392 45.0012 54.6109 45.1788 54.6132H59.4367C57.7942 55.9751 56.4562 57.6627 55.5086 59.5678C54.5609 61.4728 54.0244 63.5535 53.9335 65.6764H39.6665C39.4897 65.6764 39.3202 65.7461 39.1952 65.8702C39.0702 65.9943 39 66.1627 39 66.3382C39 66.5137 39.0702 66.682 39.1952 66.8062C39.3202 66.9303 39.4897 67 39.6665 67H54.618C54.7079 67.0001 54.7968 66.9821 54.8795 66.9472C54.9622 66.9123 55.0369 66.8611 55.0991 66.7968C55.1614 66.7324 55.2099 66.6563 55.2418 66.5729C55.2736 66.4894 55.2882 66.4005 55.2845 66.3113Z" fill="#000003"/>
<path d="M84.2938 67C84.4794 67 84.6576 66.9293 84.7898 66.8033C84.9219 66.6772 84.9974 66.5059 84.9999 66.3265C85.0076 64.2485 84.5822 62.1903 83.7491 60.2748C82.9161 58.3592 81.6925 56.6255 80.1512 55.177C80.0227 55.0632 79.8548 55 79.6805 55C79.5062 55 79.3382 55.0632 79.2097 55.177C79.1434 55.239 79.0906 55.3132 79.0546 55.3953C79.0186 55.4774 79 55.5657 79 55.6548C79 55.744 79.0186 55.8323 79.0546 55.9144C79.0906 55.9965 79.1434 56.0707 79.2097 56.1327C80.612 57.4597 81.7233 59.0463 82.4771 60.7977C83.2309 62.5492 83.6118 64.4295 83.5971 66.3265C83.5971 66.4149 83.6151 66.5025 83.6501 66.5842C83.6851 66.6659 83.7364 66.7402 83.8011 66.8027C83.8658 66.8653 83.9426 66.9149 84.0272 66.9487C84.1117 66.9826 84.2023 67 84.2938 67Z" fill="#000003"/>
</svg>
