<svg width="158" height="158" viewBox="0 0 158 158" fill="none" xmlns="http://www.w3.org/2000/svg"
    vector-effect="non-scaling-stroke">
    <circle cx="79" cy="79" r="78.5" stroke="#02073E" />
    <path fill-rule="evenodd" clip-rule="evenodd"
        d="M81.9352 91.5148C82.5525 92.0985 82.9023 92.9106 82.9023 93.7602C82.9023 94.6098 82.5525 95.4218 81.9352 96.0056L60.6276 116.154C59.3873 117.327 57.4307 117.273 56.2573 116.033C55.0839 114.793 55.1382 112.837 56.3787 111.664L72.0433 96.8509L30.0931 96.8509C28.3859 96.8509 27.0015 95.4673 27.0015 93.7602C27.0015 92.053 28.3859 90.6694 30.0931 90.6694L72.0433 90.6694L56.3787 75.8567C55.1382 74.6836 55.0839 72.7273 56.2573 71.4872C57.4307 70.2473 59.3873 70.1929 60.6276 71.3659L81.9352 91.5148ZM81.6461 93.7602C81.6461 93.256 81.4386 92.774 81.0721 92.4275L59.7645 72.2786C59.0281 71.5822 57.8664 71.6145 57.1698 72.3506C56.4733 73.0867 56.5055 74.2477 57.2418 74.9439L74.0532 90.8412C74.2401 91.0179 74.3004 91.2908 74.2053 91.5298C74.1102 91.7688 73.8789 91.9256 73.6217 91.9256L30.0931 91.9256C29.0792 91.9256 28.2577 92.7472 28.2577 93.7602C28.2577 94.7732 29.0792 95.5947 30.0931 95.5947L73.6217 95.5947C73.8789 95.5947 74.1102 95.7516 74.2053 95.9906C74.3004 96.2296 74.2401 96.5024 74.0532 96.6792L57.2418 112.576C56.5055 113.273 56.4733 114.434 57.1698 115.17C57.8664 115.906 59.0281 115.938 59.7645 115.242L81.0721 95.0928C81.4386 94.7463 81.6461 94.2643 81.6461 93.7602Z"
        fill="#02073E" />
    <path fill-rule="evenodd" clip-rule="evenodd"
        d="M75.7015 61.9943C75.0842 62.578 74.7344 63.3901 74.7344 64.2397C74.7344 65.0892 75.0842 65.9013 75.7015 66.4851L97.0091 86.634C98.2494 87.8069 100.206 87.7526 101.379 86.5126C102.553 85.2725 102.498 83.3162 101.258 82.1432L85.5934 67.3304L127.544 67.3304C129.251 67.3304 130.635 65.9468 130.635 64.2397C130.635 62.5325 129.251 61.1489 127.544 61.1489L85.5934 61.1489L101.258 46.3362C102.498 45.1631 102.553 43.2068 101.379 41.9667C100.206 40.7267 98.2494 40.6724 97.0091 41.8453L75.7015 61.9943ZM75.9906 64.2397C75.9906 63.7355 76.1982 63.2535 76.5646 62.907L97.8722 42.7581C98.6086 42.0617 99.7704 42.094 100.467 42.8301C101.163 43.5662 101.131 44.7272 100.395 45.4234L83.5835 61.3207C83.3966 61.4974 83.3363 61.7702 83.4315 62.0093C83.5266 62.2483 83.7578 62.4051 84.015 62.4051L127.544 62.4051C128.557 62.4051 129.379 63.2267 129.379 64.2397C129.379 65.2527 128.557 66.0742 127.544 66.0742L84.015 66.0742C83.7578 66.0742 83.5266 66.2311 83.4315 66.4701C83.3363 66.7091 83.3966 66.9819 83.5835 67.1587L100.395 83.0559C101.131 83.7522 101.163 84.9132 100.467 85.6492C99.7704 86.3854 98.6086 86.4176 97.8722 85.7213L76.5646 65.5723C76.1982 65.2258 75.9906 64.7438 75.9906 64.2397Z"
        fill="#02073E" />
</svg>