<svg width="158" height="158" viewBox="0 0 158 158" fill="none" xmlns="http://www.w3.org/2000/svg"
    vector-effect="non-scaling-stroke">
    <circle cx="79" cy="79" r="78.5" stroke="#02073E" />
    <path
        d="M54.3674 86.2188C51.9554 86.2188 49.9844 88.2006 49.9844 90.646C49.9844 93.0915 51.9464 95.0733 54.3674 95.0733C56.7884 95.0733 58.7504 93.0915 58.7504 90.646C58.7504 88.2006 56.7884 86.2188 54.3674 86.2188ZM54.3674 93.2551C52.9454 93.2551 51.7844 92.0824 51.7844 90.646C51.7844 89.2097 52.9454 88.0369 54.3674 88.0369C55.7894 88.0369 56.9504 89.2097 56.9504 90.646C56.9504 92.0824 55.7894 93.2551 54.3674 93.2551Z"
        fill="#02073E" />
    <path
        d="M54.3674 97.6084C51.9554 97.6084 49.9844 99.5902 49.9844 102.036C49.9844 104.481 51.9464 106.463 54.3674 106.463C56.7884 106.463 58.7504 104.481 58.7504 102.036C58.7504 99.5902 56.7884 97.6084 54.3674 97.6084ZM54.3674 104.645C52.9454 104.645 51.7844 103.472 51.7844 102.036C51.7844 100.599 52.9454 99.4266 54.3674 99.4266C55.7894 99.4266 56.9504 100.599 56.9504 102.036C56.9504 103.472 55.7894 104.645 54.3674 104.645Z"
        fill="#02073E" />
    <path
        d="M119.979 93.818L102.915 74.0816C105.705 68.5362 104.886 61.7816 100.818 57.0634C96.2636 51.7907 88.8926 50.4543 82.9166 53.3089C80.2256 49.3816 75.7436 46.7998 70.6766 46.7998C62.4686 46.7998 55.7996 53.5453 55.7996 61.8271C55.7996 62.1998 55.8176 62.5725 55.8446 62.9544H47.7986C42.1646 62.9544 37.6016 67.5634 37.6016 73.2362V101.827C37.6016 106.382 40.5446 110.245 44.6126 111.591V112.109H47.7806H60.9566H64.1246V111.591C68.1926 110.245 71.1356 106.373 71.1356 101.827V76.8453C73.0706 76.7816 74.9696 76.3453 76.7246 75.5543C77.1026 76.1271 77.5076 76.6907 77.9576 77.218C82.0346 81.9271 88.5506 83.6544 94.3646 81.6089L97.9466 85.7453C98.3426 86.2089 98.9636 86.418 99.5576 86.2998L102.96 85.6271L102.69 86.4271C102.492 87.018 102.618 87.6453 103.014 88.1089C103.419 88.5725 104.022 88.7816 104.616 88.6634L105.435 88.4998L105.165 89.2998C104.967 89.8907 105.093 90.518 105.489 90.9816C105.894 91.4453 106.497 91.6544 107.091 91.5362L107.91 91.3725L107.64 92.1725C107.442 92.7634 107.568 93.3907 107.964 93.8543C108.369 94.318 108.972 94.5271 109.566 94.4089L110.385 94.2453L110.097 95.0907C109.899 95.6725 110.025 96.318 110.421 96.7725L113.076 99.8453C113.4 100.218 113.868 100.436 114.354 100.436C114.462 100.436 114.57 100.427 114.678 100.4L118.08 99.718C118.701 99.5907 119.196 99.1362 119.376 98.5271L120.294 95.4362C120.501 94.8634 120.366 94.2634 119.979 93.818ZM111.852 92.9816C111.447 92.518 110.844 92.3089 110.25 92.4271L109.431 92.5907L109.701 91.7907C109.899 91.1998 109.773 90.5725 109.377 90.1089C108.972 89.6453 108.369 89.4362 107.775 89.5544L106.956 89.718L107.226 88.918C107.424 88.3271 107.298 87.6998 106.902 87.2362C106.497 86.7725 105.894 86.5634 105.3 86.6816L104.481 86.8453L104.751 86.0453C104.949 85.4543 104.823 84.8271 104.427 84.3634C104.022 83.8998 103.419 83.6907 102.816 83.8089L99.2966 84.5089L94.9046 79.4543L94.3106 79.6907C89.0546 81.7907 83.0336 80.318 79.3166 76.018C76.9676 73.2998 75.8066 69.8271 76.0496 66.2271C76.2926 62.6271 77.9036 59.3453 80.5946 56.9725C81.1256 56.5089 81.6836 56.1089 82.2596 55.7362C82.6826 56.5543 83.0156 57.4271 83.2676 58.3362C82.9256 58.4907 82.5926 58.6816 82.2956 58.9362C81.5306 59.6089 81.0716 60.5453 81.0086 61.5634C80.9366 62.5816 81.2696 63.5725 81.9356 64.3453C82.6016 65.118 83.5286 65.5816 84.5366 65.6453C84.6266 65.6544 84.7076 65.6544 84.7976 65.6544C85.7156 65.6544 86.5886 65.3271 87.2906 64.7089C88.8656 63.318 89.0276 60.8907 87.6506 59.2998C86.9576 58.4998 86.0126 58.0634 85.0406 57.9998C84.7526 56.8998 84.3566 55.8453 83.8436 54.8544C89.0816 52.4453 95.4806 53.6544 99.4586 58.2453C103.176 62.5453 103.815 68.7725 101.043 73.7453L100.728 74.3089L118.584 94.9634L117.702 97.9453L114.426 98.5998L111.843 95.618L112.167 94.6544C112.374 94.0725 112.248 93.4453 111.852 92.9816ZM83.7446 61.8271C83.7446 62.3725 83.6996 62.918 83.6366 63.4634C83.5106 63.3725 83.3936 63.2725 83.2946 63.1544C82.9436 62.7453 82.7726 62.2271 82.8086 61.6907C82.8446 61.1544 83.0876 60.6634 83.4836 60.3089C83.5286 60.2634 83.5826 60.2362 83.6366 60.1998C83.7086 60.7362 83.7446 61.2725 83.7446 61.8271ZM85.4186 59.9271C85.7516 60.0362 86.0576 60.218 86.3006 60.5089C87.0206 61.3453 86.9396 62.618 86.1116 63.3544C85.9046 63.5362 85.6706 63.6725 85.4186 63.7544C85.4996 63.118 85.5536 62.4816 85.5536 61.8362C85.5446 61.1816 85.4906 60.5544 85.4186 59.9271ZM47.7806 110.291C47.3126 110.291 46.8536 110.245 46.4126 110.163V87.3907C46.4126 82.9544 49.9856 79.3543 54.3686 79.3543C58.7606 79.3543 62.3246 82.9634 62.3246 87.3907V110.163C61.8746 110.236 61.4246 110.291 60.9566 110.291H47.7806ZM69.3356 101.827C69.3356 105.363 67.1756 108.391 64.1246 109.654V87.3907C64.1246 81.9544 59.7506 77.5362 54.3686 77.5362C48.9866 77.5362 44.6126 81.9544 44.6126 87.3907V109.654C41.5616 108.391 39.4016 105.363 39.4016 101.827V73.2362C39.4016 68.5725 43.1636 64.7725 47.7806 64.7725H60.9566C65.5736 64.7725 69.3356 68.5725 69.3356 73.2362V74.9634C67.0586 74.7271 64.8986 73.8816 63.0716 72.5634V67.6725H45.6656V75.118H63.0716V74.7271C64.9616 75.8634 67.1036 76.5816 69.3356 76.7907V101.827ZM57.8696 69.4907C58.7246 70.9453 59.8136 72.2362 61.0736 73.2998H47.4656V69.4907H57.8696ZM60.0206 69.4907H61.2716V70.9998C60.8216 70.5362 60.4076 70.0271 60.0206 69.4907ZM71.1356 75.0271V73.2362C71.1356 67.5634 66.5726 62.9544 60.9566 62.9544H57.6356C57.6086 62.5816 57.5816 62.2089 57.5816 61.8271C57.5816 54.5453 63.4496 48.618 70.6586 48.618C75.0506 48.618 78.9386 50.8271 81.3146 54.1907C80.6576 54.6089 80.0096 55.0725 79.4066 55.5998C76.3556 58.2907 74.5286 62.018 74.2496 66.1089C74.0696 68.8725 74.6276 71.5544 75.8156 73.9725C74.3486 74.6089 72.7556 74.9725 71.1356 75.0271Z"
        fill="#02073E" />
</svg>