<svg width="158" height="158" viewBox="0 0 158 158" fill="none" xmlns="http://www.w3.org/2000/svg"
    vector-effect="non-scaling-stroke">
    <circle cx="79" cy="79" r="78.5" stroke="#02073E" />
    <path
        d="M100.948 82.9911C97.9432 82.9911 95.1154 83.272 92.5846 83.773V76.0857V68.2748V60.462V52.6511C92.5846 47.7648 83.8456 43.9375 72.6892 43.9375C61.5301 43.9375 52.7893 47.7648 52.7893 52.6511V60.462V68.2748V76.0857V83.9002V89.682C43.1863 90.3284 36.0547 93.8793 36.0547 98.2984V106.113C36.0547 111.003 44.7955 114.833 55.9537 114.833C65.5 114.833 73.2715 112.027 75.3181 108.155C77.353 108.042 79.2817 107.799 81.0628 107.447C81.2131 112.277 89.8909 116.042 100.95 116.042C112.104 116.042 120.84 112.21 120.84 107.32V99.522V91.7111C120.837 86.8211 112.101 82.9911 100.948 82.9911ZM75.8491 98.2984C75.8491 96.0966 74.0752 94.113 71.1115 92.5939C71.188 92.5966 71.2663 92.5975 71.3428 92.5993C71.7874 92.612 72.2356 92.6202 72.6883 92.6202C75.6943 92.6202 78.5221 92.3393 81.0538 91.8384V97.753C79.3924 98.1002 77.6275 98.3511 75.8491 98.4893V98.2984ZM82.8538 95.392C85.966 98.392 92.8114 100.43 100.947 100.43C109.082 100.43 115.925 98.392 119.037 95.393V99.5211C119.037 103.58 109.504 106.41 100.947 106.41C92.3893 106.41 82.8538 103.58 82.8538 99.5211V95.392ZM100.948 84.8093C111.769 84.8093 119.038 88.3784 119.038 91.7111C119.038 95.7775 109.505 98.6129 100.948 98.6129C92.3902 98.6129 82.8547 95.7775 82.8547 91.7111C82.8538 88.3775 90.124 84.8093 100.948 84.8093ZM72.6883 45.7548C81.2473 45.7548 90.7837 48.5866 90.7837 52.6502C90.7837 55.9839 83.5126 59.552 72.6883 59.552C61.8613 59.552 54.5884 55.9839 54.5884 52.6502C54.5884 48.5866 64.1275 45.7548 72.6883 45.7548ZM54.5884 56.3311C56.4595 58.1348 59.6878 59.5866 63.727 60.4611C66.4072 61.0411 69.442 61.3702 72.6883 61.3702C75.9337 61.3702 78.9676 61.0411 81.6478 60.4611C85.6861 59.5866 88.9126 58.1348 90.7837 56.332V60.4611C90.7837 63.7948 83.5126 67.3648 72.6883 67.3648C61.8613 67.3648 54.5884 63.7948 54.5884 60.4611V56.3311ZM54.5884 64.143L54.5893 64.1439C54.9754 64.5157 55.4182 64.872 55.9141 65.212C55.9213 65.2175 55.9285 65.222 55.9357 65.2275C56.4271 65.563 56.9698 65.882 57.5593 66.182C57.5773 66.1911 57.5944 66.2002 57.6124 66.2093C58.1965 66.5048 58.8256 66.782 59.4961 67.0393C59.5276 67.0511 59.56 67.063 59.5924 67.0757C60.2566 67.3275 60.9604 67.5602 61.7002 67.772C61.7479 67.7857 61.7956 67.7984 61.8442 67.812C62.179 67.9057 62.5201 67.9957 62.8693 68.0802C62.9098 68.0902 62.9485 68.1002 62.9899 68.1102C63.3679 68.2011 63.754 68.2866 64.1482 68.3666C64.2085 68.3793 64.2706 68.3902 64.3309 68.403C64.6702 68.4702 65.0158 68.533 65.3659 68.592C65.4424 68.6057 65.518 68.6184 65.5945 68.6311C65.995 68.6966 66.4018 68.7566 66.8149 68.8102C66.8761 68.8184 66.9391 68.8257 67.0012 68.833C67.3585 68.8784 67.7203 68.9184 68.0857 68.9557C68.1874 68.9657 68.2882 68.9757 68.3908 68.9857C68.8129 69.0248 69.2395 69.0602 69.6724 69.0875C69.7183 69.0902 69.7651 69.092 69.811 69.0948C70.2016 69.1184 70.5967 69.1366 70.9945 69.1511C71.1106 69.1548 71.2267 69.1593 71.3428 69.163C71.7874 69.1757 72.2356 69.1839 72.6883 69.1839C73.141 69.1839 73.5883 69.1748 74.0338 69.163C74.1499 69.1602 74.266 69.1557 74.3812 69.152C74.7799 69.1384 75.1759 69.1193 75.5665 69.0957C75.6124 69.093 75.6583 69.0911 75.7033 69.0884C76.1371 69.0611 76.5637 69.0257 76.9867 68.9866C77.0875 68.9775 77.1883 68.9675 77.2882 68.9566C77.6536 68.9193 78.0154 68.8793 78.3718 68.8348C78.4348 68.8266 78.4978 68.8193 78.5599 68.812C78.973 68.7575 79.3807 68.6975 79.7812 68.632C79.8559 68.6202 79.9297 68.6066 80.0035 68.5939C80.3581 68.5348 80.7055 68.4702 81.0484 68.403C81.1069 68.3911 81.1654 68.3811 81.223 68.3684C81.6181 68.2884 82.0051 68.202 82.3849 68.1111C82.4236 68.102 82.4614 68.092 82.5001 68.083C82.852 67.9975 83.1949 67.9066 83.5324 67.812C83.5783 67.7993 83.6242 67.7866 83.6692 67.7739C84.4099 67.562 85.1137 67.3293 85.7806 67.0766C85.8112 67.0648 85.8427 67.053 85.8742 67.0411C86.5456 66.783 87.1747 66.5066 87.7588 66.2102C87.7768 66.2011 87.7939 66.192 87.8119 66.1839C88.4023 65.883 88.945 65.5639 89.4364 65.2284C89.4436 65.2239 89.4508 65.2184 89.4571 65.2139C89.953 64.8739 90.3958 64.5166 90.7828 64.1457C90.7828 64.1457 90.7828 64.1448 90.7837 64.1448V68.2748C90.7837 72.342 81.2464 75.1766 72.6883 75.1766C61.8613 75.1766 54.5884 71.6084 54.5884 68.2748V64.143ZM54.5884 71.9548C54.9754 72.3284 55.4209 72.6866 55.9195 73.0275C55.924 73.0302 55.9285 73.0339 55.933 73.0366C56.4262 73.373 56.9707 73.693 57.5629 73.9948C57.5791 74.003 57.5953 74.0111 57.6115 74.0193C58.1965 74.3157 58.8283 74.5939 59.5006 74.852C59.5303 74.8639 59.56 74.8748 59.5906 74.8866C60.2566 75.1393 60.9622 75.372 61.7038 75.5839C61.7497 75.5975 61.7974 75.6102 61.8442 75.623C62.1799 75.7175 62.5219 75.8075 62.8729 75.892C62.9125 75.902 62.9512 75.912 62.9917 75.9211C63.3706 76.012 63.7576 76.0975 64.1518 76.1775C64.2103 76.1893 64.2706 76.2002 64.33 76.213C64.6711 76.2802 65.0176 76.3439 65.3695 76.403C65.4451 76.4157 65.5198 76.4293 65.5963 76.4411C65.9968 76.5066 66.4036 76.5666 66.8167 76.6202C66.8788 76.6284 66.9418 76.6357 67.0039 76.643C67.3603 76.6875 67.7212 76.7284 68.0866 76.7648C68.1883 76.7748 68.29 76.7848 68.3917 76.7948C68.8138 76.8339 69.2395 76.8693 69.6715 76.8966C69.7201 76.8993 69.7705 76.9011 69.82 76.9048C70.2079 76.9284 70.6003 76.9466 70.9963 76.9602C71.1124 76.9639 71.2285 76.9684 71.3446 76.972C71.7892 76.9848 72.2374 76.993 72.6901 76.993C73.1428 76.993 73.5901 76.9839 74.0356 76.972C74.1517 76.9693 74.2678 76.9648 74.3839 76.9611C74.7799 76.9475 75.1723 76.9293 75.5611 76.9057C75.6097 76.903 75.6592 76.9011 75.7078 76.8975C76.1398 76.8702 76.5664 76.8348 76.9885 76.7957C77.0893 76.7866 77.1901 76.7766 77.2909 76.7657C77.6554 76.7293 78.0172 76.6893 78.3736 76.6439C78.4366 76.6357 78.5005 76.6293 78.5635 76.6211C78.9757 76.5675 79.3807 76.5075 79.7812 76.442C79.8595 76.4293 79.9369 76.4157 80.0143 76.403C80.3644 76.3439 80.7082 76.2811 81.0457 76.2139C81.1069 76.202 81.169 76.1911 81.2302 76.1784C81.6226 76.0984 82.0069 76.013 82.3831 75.923C82.4281 75.912 82.4713 75.9011 82.5154 75.8902C82.8592 75.8066 83.1949 75.7184 83.5243 75.6257C83.5765 75.6111 83.6278 75.5975 83.68 75.583C84.4144 75.373 85.1146 75.1411 85.7752 74.8911C85.8121 74.8775 85.8472 74.8639 85.8841 74.8502C86.5492 74.5948 87.1747 74.3193 87.7543 74.0257C87.7768 74.0139 87.7984 74.003 87.8209 73.992C88.4059 73.693 88.9459 73.3766 89.4346 73.043C89.4436 73.0366 89.4535 73.0293 89.4625 73.023C89.9566 72.6839 90.3985 72.3284 90.7828 71.9584C90.7837 71.9575 90.7846 71.9575 90.7855 71.9566V76.0857V76.0866C90.7846 77.8611 88.5778 79.7411 84.8644 81.092C81.8674 82.1357 78.0838 82.8011 74.3533 82.9557C73.807 82.9757 73.2553 82.9911 72.6892 82.9911C71.8864 82.9911 71.0755 82.9666 70.2646 82.9175C69.2845 82.8593 68.3044 82.7657 67.3396 82.6402C60.5878 81.7639 54.5893 79.312 54.5893 76.0848L54.5884 71.9548ZM54.5884 79.7684C54.5893 79.7693 54.5902 79.7702 54.5911 79.7711C54.9754 80.1411 55.4164 80.4966 55.9105 80.8357C55.9204 80.842 55.9303 80.8493 55.9402 80.8557C56.4289 81.1884 56.9689 81.5066 57.5548 81.8057C57.5764 81.8166 57.598 81.8266 57.6196 81.8384C58.2001 82.1311 58.8247 82.4066 59.4907 82.663C59.5276 82.6775 59.5645 82.6902 59.6014 82.7048C59.9299 82.8293 60.2647 82.9502 60.6121 83.0648C60.613 83.0648 60.6139 83.0657 60.6148 83.0657C60.9658 83.1811 61.3267 83.2911 61.6957 83.3966C61.747 83.412 61.7992 83.4248 61.8514 83.4402C62.1817 83.533 62.5174 83.6202 62.8612 83.7048C62.9053 83.7157 62.9494 83.7266 62.9935 83.7375C63.3697 83.8284 63.754 83.912 64.1455 83.992C64.2085 84.0048 64.2724 84.0166 64.3354 84.0293C64.672 84.0957 65.014 84.1584 65.3614 84.2166C65.4397 84.2302 65.518 84.2439 65.5972 84.2566C65.9959 84.3211 66.4018 84.382 66.8131 84.4357C66.877 84.4439 66.9418 84.4511 67.0048 84.4584C67.3612 84.5039 67.7212 84.5439 68.0848 84.5802C68.1865 84.5911 68.2873 84.6002 68.3899 84.6102C68.812 84.6493 69.2377 84.6848 69.6697 84.712C69.7183 84.7148 69.7678 84.7175 69.8173 84.7202C70.2061 84.7439 70.5985 84.762 70.9945 84.7766C71.1106 84.7802 71.2267 84.7848 71.3428 84.7875C71.7874 84.8002 72.2356 84.8084 72.6883 84.8084C73.141 84.8084 73.5883 84.7993 74.0338 84.7875C74.1499 84.7848 74.266 84.7802 74.3812 84.7766C74.7772 84.762 75.1714 84.7448 75.5602 84.7202C75.6088 84.7175 75.6574 84.7148 75.706 84.712C76.1389 84.6848 76.5655 84.6493 76.9876 84.6102C77.0884 84.6011 77.1883 84.5911 77.2891 84.5811C77.6554 84.5439 78.0172 84.503 78.3754 84.4584C78.4366 84.4502 78.5005 84.443 78.5617 84.4357C78.9748 84.3811 79.3807 84.3211 79.7812 84.2566C79.8577 84.2439 79.9333 84.2311 80.0107 84.2175C80.3608 84.1593 80.7055 84.0948 81.0457 84.0284C81.106 84.0157 81.1672 84.0048 81.2275 83.993C81.6208 83.912 82.0069 83.8266 82.3849 83.7366C82.4254 83.7266 82.4659 83.7166 82.5064 83.7066C82.8538 83.622 83.194 83.533 83.5279 83.4393C83.5774 83.4248 83.6269 83.412 83.6773 83.3975C84.4135 83.1866 85.1146 82.9548 85.7761 82.7039C85.8112 82.6902 85.8463 82.6775 85.8814 82.6639C86.5483 82.4075 87.1747 82.1311 87.7561 81.8375C87.7759 81.8266 87.7975 81.8175 87.8182 81.8066C88.4041 81.5066 88.945 81.1893 89.4337 80.8557C89.4436 80.8484 89.4526 80.842 89.4616 80.8366C89.9557 80.4975 90.3967 80.142 90.7819 79.772C90.7819 79.7711 90.7837 79.7702 90.7846 79.7693V83.9002C90.7846 83.9957 90.7576 84.093 90.7441 84.1893C86.0326 85.4011 82.6198 87.4402 81.475 89.8857C78.9307 90.4566 75.9643 90.802 72.6883 90.802C64.1275 90.802 54.5884 87.9666 54.5884 83.9002V79.7684ZM54.5884 87.5802C54.9763 87.9539 55.4218 88.313 55.9204 88.6548C55.924 88.6566 55.9267 88.6593 55.9303 88.662C56.4154 88.993 56.9491 89.3084 57.5296 89.6048C57.0085 89.5875 56.4838 89.5766 55.9519 89.5766C55.492 89.5766 55.0384 89.5857 54.5875 89.5975V87.5802H54.5884ZM55.9528 91.3948C66.6178 91.3948 74.0491 95.033 74.0491 98.2984C74.0491 101.633 66.7771 105.204 55.9528 105.204C45.1267 105.204 37.8538 101.633 37.8538 98.2984C37.8538 94.2284 47.392 91.3948 55.9528 91.3948ZM55.9528 113.014C47.392 113.014 37.8538 110.178 37.8538 106.112V101.98C40.9669 104.982 47.8141 107.021 55.9528 107.021C64.0897 107.021 70.9369 104.982 74.0491 101.98V106.112C74.0491 110.178 64.5118 113.014 55.9528 113.014ZM75.8491 106.112V100.325C77.686 100.201 79.4302 99.9702 81.0538 99.6484V105.552C79.3888 105.899 77.6221 106.149 75.8392 106.287C75.8419 106.228 75.8491 106.171 75.8491 106.112ZM119.037 107.319C119.037 111.387 109.504 114.223 100.947 114.223C90.124 114.223 82.8538 110.652 82.8538 107.319V103.197C85.966 106.193 92.8114 108.228 100.947 108.228C109.082 108.228 115.925 106.193 119.037 103.198V107.319Z"
        fill="#02073E" />
</svg>