<svg width="158" height="158" viewBox="0 0 158 158" fill="none" xmlns="http://www.w3.org/2000/svg"
    vector-effect="non-scaling-stroke">
    <path
        d="M71.5448 40.6358C71.1676 40.7189 70.866 41.0668 70.8389 41.4499L69.9917 52.5667C68.7996 52.9584 67.6018 53.4194 66.462 53.9703L57.8494 47.1206C57.5107 46.8543 56.9751 46.8797 56.6634 47.1767L46.7237 57.0584C46.4099 57.3712 46.384 57.9251 46.6672 58.2655L53.5573 66.8557C53.011 67.9826 52.5365 69.1592 52.1454 70.3367L40.9914 71.1789C40.5374 71.2072 40.1434 71.625 40.1443 72.0772V86.4505C40.1574 86.8932 40.5467 87.2932 40.9914 87.3208L52.1171 88.1628C52.3642 88.9178 52.6062 89.7125 52.8513 90.3525C53.0643 90.9179 53.9263 91.0957 54.3479 90.6614L58.866 86.1697C58.9217 86.1113 58.9693 86.0447 59.0072 85.9733C59.0542 85.8559 59.0875 85.714 59.1201 85.6086C59.1321 85.525 59.1321 85.4396 59.1201 85.356C59.1145 85.3083 59.1051 85.2615 59.0919 85.2155C58.5231 83.3317 58.2165 81.3343 58.2165 79.2638C58.2165 67.8421 67.5107 58.6023 78.9996 58.6023C90.4885 58.6023 99.7827 67.8421 99.7827 79.2638C99.7827 90.6855 90.4937 99.869 78.9996 99.9254C76.6875 99.9371 76.166 99.9595 75.4134 99.9254C75.1655 99.9119 74.9138 100.006 74.7357 100.178L70.2176 104.67C70.0374 104.853 69.9422 105.116 69.9635 105.371L70.8671 117.05C70.8956 117.501 71.3158 117.893 71.7707 117.892H78.9996H86.2285C86.6834 117.893 87.1037 117.501 87.1321 117.05L88.0075 105.933C89.1912 105.544 90.3761 105.074 91.509 104.529L100.15 111.407C100.495 111.666 101.031 111.628 101.336 111.323L111.275 101.441C111.574 101.131 111.6 100.599 111.332 100.262L104.442 91.6717C104.995 90.5362 105.46 89.3479 105.854 88.1626L117.008 87.3205C117.452 87.2926 117.842 86.8932 117.855 86.4505V72.0772C117.856 71.625 117.462 71.2072 117.008 71.1789L105.854 70.3367C105.463 69.1592 104.988 67.9826 104.442 66.8557L111.332 58.2654C111.615 57.925 111.589 57.3711 111.275 57.0583L101.336 47.1767C101.024 46.8796 100.488 46.8542 100.15 47.1205L91.5372 53.9703C90.3974 53.4194 89.1996 52.9584 88.0075 52.5667L87.1603 41.4499C87.1195 41.0175 86.7217 40.6475 86.285 40.6357H78.9996C76.522 40.6357 74.0086 40.6358 71.5448 40.6358ZM72.5614 42.4324H78.9996H85.4378L86.285 53.2685C86.312 53.6208 86.5682 53.9451 86.9062 54.0545C88.4021 54.5231 89.93 55.104 91.2548 55.795C91.5628 55.9605 91.968 55.926 92.2432 55.7109L100.658 49.0295L109.44 57.7602L102.719 66.1259C102.505 66.3884 102.459 66.7756 102.606 67.0803C103.298 68.3993 103.888 69.9468 104.357 71.4316C104.467 71.7676 104.793 72.0224 105.148 72.0492L116.048 72.8913V85.6083L105.148 86.4505C104.793 86.4774 104.467 86.732 104.357 87.0681C103.885 88.5563 103.301 90.0997 102.606 91.4193C102.448 91.7306 102.494 92.1341 102.719 92.4019L109.412 100.768L100.63 109.498L92.2432 102.817C91.9738 102.593 91.5681 102.547 91.2548 102.705C89.9284 103.395 88.4009 103.977 86.9062 104.445C86.5682 104.555 86.3119 104.879 86.285 105.231L85.3814 116.095H78.9996H72.6178L71.7989 105.652L75.7522 101.722C76.448 101.744 76.9644 101.733 78.9996 101.722C91.4596 101.661 101.59 91.6565 101.59 79.2638C101.59 66.8711 91.4652 56.8056 78.9996 56.8056C66.534 56.8056 56.4093 66.8711 56.4093 79.2638C56.4093 81.3314 56.7293 83.3119 57.2564 85.2153L54.0938 88.3594C53.9433 87.9122 53.792 87.5272 53.642 87.0681C53.5319 86.732 53.2057 86.4773 52.8513 86.4505L41.9515 85.6083V72.8913L52.8513 72.0491C53.2057 72.0223 53.5319 71.7675 53.642 71.4315C54.1117 69.9467 54.7015 68.3993 55.3927 67.0803C55.5398 66.7755 55.494 66.3883 55.2798 66.1258L48.5592 57.7601L57.3412 49.0295L65.756 55.7108C66.0312 55.9259 66.4365 55.9605 66.7444 55.795C68.0692 55.104 69.5971 54.5231 71.093 54.0545C71.431 53.9451 71.6872 53.6208 71.7142 53.2685L72.5614 42.4324ZM83.5177 63.0939C82.1559 63.1213 79.7593 63.1176 77.503 63.3466C76.3748 63.461 75.2858 63.6379 74.3404 63.908C73.5602 64.1309 72.9244 64.4496 72.3919 64.9467C72.3627 64.9638 72.3344 64.9826 72.3072 65.0029C72.3021 65.0083 72.2841 64.9975 72.279 65.0029C72.2392 65.0279 72.2014 65.0562 72.166 65.0871C72.114 65.1285 72.0665 65.1757 72.0248 65.2275L66.5467 72.4141C66.4198 72.572 66.3489 72.7734 66.349 72.9755V85.1872L42.2339 108.263C41.5291 108.938 41.1079 109.884 41.0479 110.93C40.9879 111.976 41.3155 113.133 42.2057 114.018L44.0129 115.815C44.563 116.361 45.4221 116.802 46.4696 116.937C47.517 117.073 48.7763 116.826 49.8016 115.843L73.945 92.7107L86.285 91.8404C86.4988 91.818 86.7031 91.7161 86.8497 91.5597L92.2714 86.1697C93.7611 84.6915 94.3508 82.1377 94.7563 79.8814C94.9591 78.7533 95.1054 77.7015 95.1799 76.9338C95.2108 76.4967 95.2388 76.0569 95.2646 75.6425C95.2645 75.6239 95.2692 75.6119 95.2646 75.5583C95.2623 75.5314 95.2366 75.3906 95.2364 75.3899C95.2363 75.3895 95.0106 75.025 95.0105 75.0249C95.0104 75.0248 93.7681 74.9687 93.768 74.9688L85.8614 81.9588H82.9811L77.1924 76.1758V72.4141L84.2236 64.5818C84.6811 64.0591 84.2144 63.0754 83.5177 63.0939ZM81.4281 64.9748L75.6111 71.4596C75.4618 71.6277 75.3794 71.853 75.3852 72.0772V76.5689C75.387 76.7967 75.4799 77.0227 75.6393 77.1865L81.9363 83.4748C82.1031 83.6498 82.3433 83.7537 82.5858 83.7555H86.2003C86.4258 83.7645 86.6524 83.6791 86.8215 83.5309L93.2315 77.8602C93.1624 78.4162 93.0943 78.9218 92.9774 79.5726C92.5942 81.7043 91.8195 84.094 91.0007 84.9064L85.8049 90.0718L73.465 90.9421C73.2548 90.9574 73.0511 91.0486 72.9002 91.1948L48.5592 114.551C47.9311 115.154 47.3113 115.249 46.6955 115.169C46.0797 115.089 45.4912 114.73 45.3118 114.551L43.5046 112.755C43.0004 112.253 42.8201 111.653 42.8551 111.042C42.8902 110.432 43.1668 109.851 43.4764 109.554L67.8739 86.1978C68.05 86.032 68.1544 85.7932 68.1563 85.5521V73.2563L73.3803 66.4065L73.465 66.3224C73.573 66.1791 74.0737 65.8419 74.8486 65.6205C75.6236 65.3991 76.635 65.2514 77.7007 65.1433C79.0533 65.0061 80.2005 65.004 81.4281 64.9748Z"
        fill="#02073E" />
    <circle cx="79" cy="79" r="78.5" stroke="#02073E" />
</svg>