<svg width="158" height="158" viewBox="0 0 158 158" fill="none" xmlns="http://www.w3.org/2000/svg"
    vector-effect="non-scaling-stroke">
    <circle cx="79" cy="79" r="78.5" stroke="#02073E" />
    <path fill-rule="evenodd" clip-rule="evenodd"
        d="M81.9338 91.515C82.5511 92.0988 82.9009 92.9109 82.9009 93.7604C82.9009 94.61 82.5511 95.4221 81.9338 96.0058L60.6262 116.155C59.3858 117.328 57.4292 117.273 56.2559 116.033C55.0824 114.793 55.1368 112.837 56.3773 111.664L72.0418 96.8512L30.0916 96.8512C28.3844 96.8512 27 95.4676 27 93.7604C27 92.0532 28.3844 90.6697 30.0916 90.6697L72.0418 90.6697L56.3773 75.8569C55.1368 74.6839 55.0824 72.7276 56.2559 71.4875C57.4292 70.2475 59.3858 70.1932 60.6262 71.3661L81.9338 91.515ZM81.6447 93.7604C81.6447 93.2563 81.4371 92.7743 81.0706 92.4278L59.7631 72.2788C59.0267 71.5825 57.8649 71.6147 57.1683 72.3509C56.4718 73.0869 56.5041 74.2479 57.2404 74.9442L74.0518 90.8414C74.2387 91.0182 74.2989 91.291 74.2038 91.53C74.1087 91.769 73.8775 91.9259 73.6202 91.9259L30.0916 91.9259C29.0778 91.9259 28.2562 92.7474 28.2562 93.7604C28.2562 94.7734 29.0778 95.595 30.0916 95.595L73.6202 95.595C73.8775 95.595 74.1087 95.7518 74.2038 95.9908C74.2989 96.2298 74.2387 96.5027 74.0518 96.6794L57.2404 112.577C56.5041 113.273 56.4718 114.434 57.1683 115.17C57.8649 115.906 59.0267 115.938 59.7631 115.242L81.0706 95.0931C81.4371 94.7466 81.6447 94.2646 81.6447 93.7604Z"
        fill="#02073E" />
    <path fill-rule="evenodd" clip-rule="evenodd"
        d="M75.7027 61.9943C75.0854 62.578 74.7356 63.3901 74.7356 64.2397C74.7356 65.0892 75.0854 65.9013 75.7027 66.4851L97.0103 86.634C98.2507 87.8069 100.207 87.7526 101.381 86.5126C102.554 85.2725 102.5 83.3162 101.259 82.1432L85.5946 67.3304L127.545 67.3304C129.252 67.3304 130.636 65.9468 130.636 64.2397C130.636 62.5325 129.252 61.1489 127.545 61.1489L85.5946 61.1489L101.259 46.3362C102.5 45.1631 102.554 43.2068 101.381 41.9667C100.207 40.7267 98.2507 40.6724 97.0103 41.8453L75.7027 61.9943ZM75.9918 64.2397C75.9918 63.7355 76.1994 63.2535 76.5658 62.907L97.8734 42.7581C98.6098 42.0617 99.7716 42.094 100.468 42.8301C101.165 43.5662 101.132 44.7272 100.396 45.4234L83.5847 61.3207C83.3978 61.4974 83.3376 61.7702 83.4327 62.0093C83.5278 62.2483 83.759 62.4051 84.0163 62.4051L127.545 62.4051C128.559 62.4051 129.38 63.2267 129.38 64.2397C129.38 65.2527 128.559 66.0742 127.545 66.0742L84.0163 66.0742C83.759 66.0742 83.5278 66.2311 83.4327 66.4701C83.3376 66.7091 83.3978 66.9819 83.5847 67.1587L100.396 83.0559C101.132 83.7522 101.165 84.9132 100.468 85.6492C99.7716 86.3854 98.6098 86.4176 97.8734 85.7213L76.5658 65.5723C76.1994 65.2258 75.9918 64.7438 75.9918 64.2397Z"
        fill="#02073E" />
</svg>