<svg width="158" height="158" viewBox="0 0 158 158" fill="none" xmlns="http://www.w3.org/2000/svg"
    vector-effect="non-scaling-stroke">
    <circle cx="79" cy="79" r="78.5" stroke="#02073E" />
    <path
        d="M54.3669 86.2185C51.9549 86.2185 49.9839 88.2003 49.9839 90.6458C49.9839 93.0912 51.9459 95.0731 54.3669 95.0731C56.7879 95.0731 58.7499 93.0912 58.7499 90.6458C58.7499 88.2003 56.7879 86.2185 54.3669 86.2185ZM54.3669 93.2549C52.9449 93.2549 51.7839 92.0821 51.7839 90.6458C51.7839 89.2094 52.9449 88.0367 54.3669 88.0367C55.7889 88.0367 56.9499 89.2094 56.9499 90.6458C56.9499 92.0821 55.7889 93.2549 54.3669 93.2549Z"
        fill="#02073E" />
    <path
        d="M54.3669 97.6089C51.9549 97.6089 49.9839 99.5907 49.9839 102.036C49.9839 104.482 51.9459 106.463 54.3669 106.463C56.7879 106.463 58.7499 104.482 58.7499 102.036C58.7499 99.5907 56.7879 97.6089 54.3669 97.6089ZM54.3669 104.645C52.9449 104.645 51.7839 103.473 51.7839 102.036C51.7839 100.6 52.9449 99.4271 54.3669 99.4271C55.7889 99.4271 56.9499 100.6 56.9499 102.036C56.9499 103.473 55.7889 104.645 54.3669 104.645Z"
        fill="#02073E" />
    <path
        d="M119.977 93.8182L102.913 74.0819C105.703 68.5364 104.884 61.7819 100.816 57.0637C96.2621 51.791 88.8911 50.4546 82.9151 53.3091C80.2241 49.3819 75.7421 46.8 70.6751 46.8C62.4671 46.8 55.7981 53.5455 55.7981 61.8273C55.7981 62.2001 55.8161 62.5728 55.8431 62.9546H47.7971C42.1631 62.9546 37.6001 67.5637 37.6001 73.2364V101.827C37.6001 106.382 40.5431 110.246 44.6111 111.591V112.109H47.7791H60.9551H64.1231V111.591C68.1911 110.246 71.1341 106.373 71.1341 101.827V76.8455C73.0691 76.7819 74.9681 76.3455 76.7231 75.5546C77.1011 76.1273 77.5061 76.691 77.9561 77.2182C82.0331 81.9273 88.5491 83.6546 94.3631 81.6091L97.9451 85.7455C98.3411 86.2091 98.9621 86.4182 99.5561 86.3L102.958 85.6273L102.688 86.4273C102.49 87.0182 102.616 87.6455 103.012 88.1091C103.417 88.5728 104.02 88.7819 104.614 88.6637L105.433 88.5001L105.163 89.3C104.965 89.891 105.091 90.5182 105.487 90.9819C105.892 91.4455 106.495 91.6546 107.089 91.5364L107.908 91.3728L107.638 92.1728C107.44 92.7637 107.566 93.391 107.962 93.8546C108.367 94.3182 108.97 94.5273 109.564 94.4091L110.383 94.2455L110.095 95.091C109.897 95.6728 110.023 96.3182 110.419 96.7728L113.074 99.8455C113.398 100.218 113.866 100.436 114.352 100.436C114.46 100.436 114.568 100.427 114.676 100.4L118.078 99.7182C118.699 99.591 119.194 99.1364 119.374 98.5273L120.292 95.4364C120.499 94.8637 120.364 94.2637 119.977 93.8182ZM111.85 92.9819C111.445 92.5182 110.842 92.3091 110.248 92.4273L109.429 92.591L109.699 91.791C109.897 91.2 109.771 90.5728 109.375 90.1091C108.97 89.6455 108.367 89.4364 107.773 89.5546L106.954 89.7182L107.224 88.9182C107.422 88.3273 107.296 87.7001 106.9 87.2364C106.495 86.7728 105.892 86.5637 105.298 86.6819L104.479 86.8455L104.749 86.0455C104.947 85.4546 104.821 84.8273 104.425 84.3637C104.02 83.9001 103.417 83.691 102.814 83.8091L99.2951 84.5091L94.9031 79.4546L94.3091 79.691C89.0531 81.791 83.0321 80.3182 79.3151 76.0182C76.9661 73.3 75.8051 69.8273 76.0481 66.2273C76.2911 62.6273 77.9021 59.3455 80.5931 56.9728C81.1241 56.5091 81.6821 56.1091 82.2581 55.7364C82.6811 56.5546 83.0141 57.4273 83.2661 58.3364C82.9241 58.491 82.5911 58.6819 82.2941 58.9364C81.5291 59.6091 81.0701 60.5455 81.0071 61.5637C80.9351 62.5819 81.2681 63.5728 81.9341 64.3455C82.6001 65.1182 83.5271 65.5819 84.5351 65.6455C84.6251 65.6546 84.7061 65.6546 84.7961 65.6546C85.7141 65.6546 86.5871 65.3273 87.2891 64.7091C88.8641 63.3182 89.0261 60.891 87.6491 59.3C86.9561 58.5 86.0111 58.0637 85.0391 58C84.7511 56.9 84.3551 55.8455 83.8421 54.8546C89.0801 52.4455 95.4791 53.6546 99.4571 58.2455C103.174 62.5455 103.813 68.7728 101.041 73.7455L100.726 74.3091L118.582 94.9637L117.7 97.9455L114.424 98.6L111.841 95.6182L112.165 94.6546C112.372 94.0728 112.246 93.4455 111.85 92.9819ZM83.7431 61.8273C83.7431 62.3728 83.6981 62.9182 83.6351 63.4637C83.5091 63.3728 83.3921 63.2728 83.2931 63.1546C82.9421 62.7455 82.7711 62.2273 82.8071 61.691C82.8431 61.1546 83.0861 60.6637 83.4821 60.3091C83.5271 60.2637 83.5811 60.2364 83.6351 60.2C83.7071 60.7364 83.7431 61.2728 83.7431 61.8273ZM85.4171 59.9273C85.7501 60.0364 86.0561 60.2182 86.2991 60.5091C87.0191 61.3455 86.9381 62.6182 86.1101 63.3546C85.9031 63.5364 85.6691 63.6728 85.4171 63.7546C85.4981 63.1182 85.5521 62.4819 85.5521 61.8364C85.5431 61.1819 85.4891 60.5546 85.4171 59.9273ZM47.7791 110.291C47.3111 110.291 46.8521 110.246 46.4111 110.164V87.391C46.4111 82.9546 49.9841 79.3546 54.3671 79.3546C58.7591 79.3546 62.3231 82.9637 62.3231 87.391V110.164C61.8731 110.236 61.4231 110.291 60.9551 110.291H47.7791ZM69.3341 101.827C69.3341 105.364 67.1741 108.391 64.1231 109.655V87.391C64.1231 81.9546 59.7491 77.5364 54.3671 77.5364C48.9851 77.5364 44.6111 81.9546 44.6111 87.391V109.655C41.5601 108.391 39.4001 105.364 39.4001 101.827V73.2364C39.4001 68.5728 43.1621 64.7728 47.7791 64.7728H60.9551C65.5721 64.7728 69.3341 68.5728 69.3341 73.2364V74.9637C67.0571 74.7273 64.8971 73.8819 63.0701 72.5637V67.6728H45.6641V75.1182H63.0701V74.7273C64.9601 75.8637 67.1021 76.5819 69.3341 76.791V101.827ZM57.8681 69.491C58.7231 70.9455 59.8121 72.2364 61.0721 73.3H47.4641V69.491H57.8681ZM60.0191 69.491H61.2701V71C60.8201 70.5364 60.4061 70.0273 60.0191 69.491ZM71.1341 75.0273V73.2364C71.1341 67.5637 66.5711 62.9546 60.9551 62.9546H57.6341C57.6071 62.5819 57.5801 62.2091 57.5801 61.8273C57.5801 54.5455 63.4481 48.6182 70.6571 48.6182C75.0491 48.6182 78.9371 50.8273 81.3131 54.191C80.6561 54.6091 80.0081 55.0728 79.4051 55.6C76.3541 58.291 74.5271 62.0182 74.2481 66.1091C74.0681 68.8728 74.6261 71.5546 75.8141 73.9728C74.3471 74.6091 72.7541 74.9728 71.1341 75.0273Z"
        fill="#02073E" />
</svg>