<svg width="158" height="158" viewBox="0 0 158 158" fill="none" xmlns="http://www.w3.org/2000/svg"
    vector-effect="non-scaling-stroke">
    <circle cx="79" cy="79" r="78.5" stroke="#02073E" />
    <path
        d="M100.949 82.9914C97.9442 82.9914 95.1164 83.2723 92.5856 83.7732V76.0859V68.275V60.4623V52.6514C92.5856 47.765 83.8466 43.9377 72.6902 43.9377C61.5311 43.9377 52.7903 47.765 52.7903 52.6514V60.4623V68.275V76.0859V83.9005V89.6823C43.1873 90.3287 36.0557 93.8796 36.0557 98.2986V106.113C36.0557 111.003 44.7965 114.833 55.9547 114.833C65.501 114.833 73.2725 112.028 75.3191 108.155C77.354 108.042 79.2827 107.8 81.0638 107.448C81.2141 112.277 89.8919 116.042 100.951 116.042C112.105 116.042 120.841 112.21 120.841 107.32V99.5223V91.7114C120.838 86.8214 112.102 82.9914 100.949 82.9914ZM75.8501 98.2986C75.8501 96.0968 74.0762 94.1132 71.1125 92.5941C71.189 92.5968 71.2673 92.5977 71.3438 92.5996C71.7884 92.6123 72.2366 92.6205 72.6893 92.6205C75.6953 92.6205 78.5231 92.3396 81.0548 91.8387V97.7532C79.3934 98.1005 77.6285 98.3514 75.8501 98.4896V98.2986ZM82.8548 95.3923C85.967 98.3923 92.8124 100.43 100.948 100.43C109.083 100.43 115.926 98.3923 119.038 95.3932V99.5214C119.038 103.58 109.505 106.41 100.948 106.41C92.3903 106.41 82.8548 103.58 82.8548 99.5214V95.3923ZM100.949 84.8096C111.77 84.8096 119.039 88.3787 119.039 91.7114C119.039 95.7777 109.506 98.6132 100.949 98.6132C92.3912 98.6132 82.8557 95.7777 82.8557 91.7114C82.8548 88.3777 90.125 84.8096 100.949 84.8096ZM72.6893 45.755C81.2483 45.755 90.7847 48.5868 90.7847 52.6505C90.7847 55.9841 83.5136 59.5523 72.6893 59.5523C61.8623 59.5523 54.5894 55.9841 54.5894 52.6505C54.5894 48.5868 64.1285 45.755 72.6893 45.755ZM54.5894 56.3314C56.4605 58.135 59.6888 59.5868 63.728 60.4614C66.4082 61.0414 69.443 61.3705 72.6893 61.3705C75.9347 61.3705 78.9686 61.0414 81.6488 60.4614C85.6871 59.5868 88.9136 58.135 90.7847 56.3323V60.4614C90.7847 63.795 83.5136 67.365 72.6893 67.365C61.8623 67.365 54.5894 63.795 54.5894 60.4614V56.3314ZM54.5894 64.1432L54.5903 64.1441C54.9764 64.5159 55.4192 64.8723 55.9151 65.2123C55.9223 65.2177 55.9295 65.2223 55.9367 65.2277C56.4281 65.5632 56.9708 65.8823 57.5603 66.1823C57.5783 66.1914 57.5954 66.2005 57.6134 66.2096C58.1975 66.505 58.8266 66.7823 59.4971 67.0396C59.5286 67.0514 59.561 67.0632 59.5934 67.0759C60.2576 67.3277 60.9614 67.5605 61.7012 67.7723C61.7489 67.7859 61.7966 67.7987 61.8452 67.8123C62.18 67.9059 62.5211 67.9959 62.8703 68.0805C62.9108 68.0905 62.9495 68.1005 62.9909 68.1105C63.3689 68.2014 63.755 68.2868 64.1492 68.3668C64.2095 68.3796 64.2716 68.3905 64.3319 68.4032C64.6712 68.4705 65.0168 68.5332 65.3669 68.5923C65.4434 68.6059 65.519 68.6187 65.5955 68.6314C65.996 68.6968 66.4028 68.7568 66.8159 68.8105C66.8771 68.8187 66.9401 68.8259 67.0022 68.8332C67.3595 68.8787 67.7213 68.9187 68.0867 68.9559C68.1884 68.9659 68.2892 68.9759 68.3918 68.9859C68.8139 69.025 69.2405 69.0605 69.6734 69.0877C69.7193 69.0905 69.7661 69.0923 69.812 69.095C70.2026 69.1187 70.5977 69.1368 70.9955 69.1514C71.1116 69.155 71.2277 69.1596 71.3438 69.1632C71.7884 69.1759 72.2366 69.1841 72.6893 69.1841C73.142 69.1841 73.5893 69.175 74.0348 69.1632C74.1509 69.1605 74.267 69.1559 74.3822 69.1523C74.7809 69.1387 75.1769 69.1196 75.5675 69.0959C75.6134 69.0932 75.6593 69.0914 75.7043 69.0887C76.1381 69.0614 76.5647 69.0259 76.9877 68.9868C77.0885 68.9777 77.1893 68.9677 77.2892 68.9568C77.6546 68.9196 78.0164 68.8796 78.3728 68.835C78.4358 68.8268 78.4988 68.8196 78.5609 68.8123C78.974 68.7577 79.3817 68.6977 79.7822 68.6323C79.8569 68.6205 79.9307 68.6068 80.0045 68.5941C80.3591 68.535 80.7065 68.4705 81.0494 68.4032C81.1079 68.3914 81.1664 68.3814 81.224 68.3687C81.6191 68.2887 82.0061 68.2023 82.3859 68.1114C82.4246 68.1023 82.4624 68.0923 82.5011 68.0832C82.853 67.9977 83.1959 67.9068 83.5334 67.8123C83.5793 67.7996 83.6252 67.7868 83.6702 67.7741C84.4109 67.5623 85.1147 67.3296 85.7816 67.0768C85.8122 67.065 85.8437 67.0532 85.8752 67.0414C86.5466 66.7832 87.1757 66.5068 87.7598 66.2105C87.7778 66.2014 87.7949 66.1923 87.8129 66.1841C88.4033 65.8832 88.946 65.5641 89.4374 65.2287C89.4446 65.2241 89.4518 65.2187 89.4581 65.2141C89.954 64.8741 90.3968 64.5168 90.7838 64.1459C90.7838 64.1459 90.7838 64.145 90.7847 64.145V68.275C90.7847 72.3423 81.2474 75.1768 72.6893 75.1768C61.8623 75.1768 54.5894 71.6087 54.5894 68.275V64.1432ZM54.5894 71.955C54.9764 72.3287 55.4219 72.6868 55.9205 73.0277C55.925 73.0305 55.9295 73.0341 55.934 73.0368C56.4272 73.3732 56.9717 73.6932 57.5639 73.995C57.5801 74.0032 57.5963 74.0114 57.6125 74.0196C58.1975 74.3159 58.8293 74.5941 59.5016 74.8523C59.5313 74.8641 59.561 74.875 59.5916 74.8868C60.2576 75.1396 60.9632 75.3723 61.7048 75.5841C61.7507 75.5977 61.7984 75.6105 61.8452 75.6232C62.1809 75.7177 62.5229 75.8077 62.8739 75.8923C62.9135 75.9023 62.9522 75.9123 62.9927 75.9214C63.3716 76.0123 63.7586 76.0977 64.1528 76.1777C64.2113 76.1896 64.2716 76.2005 64.331 76.2132C64.6721 76.2805 65.0186 76.3441 65.3705 76.4032C65.4461 76.4159 65.5208 76.4296 65.5973 76.4414C65.9978 76.5068 66.4046 76.5668 66.8177 76.6205C66.8798 76.6287 66.9428 76.6359 67.0049 76.6432C67.3613 76.6877 67.7222 76.7287 68.0876 76.765C68.1893 76.775 68.291 76.785 68.3927 76.795C68.8148 76.8341 69.2405 76.8696 69.6725 76.8968C69.7211 76.8996 69.7715 76.9014 69.821 76.905C70.2089 76.9287 70.6013 76.9468 70.9973 76.9605C71.1134 76.9641 71.2295 76.9687 71.3456 76.9723C71.7902 76.985 72.2384 76.9932 72.6911 76.9932C73.1438 76.9932 73.5911 76.9841 74.0366 76.9723C74.1527 76.9696 74.2688 76.965 74.3849 76.9614C74.7809 76.9477 75.1733 76.9296 75.5621 76.9059C75.6107 76.9032 75.6602 76.9014 75.7088 76.8977C76.1408 76.8705 76.5674 76.835 76.9895 76.7959C77.0903 76.7868 77.1911 76.7768 77.2919 76.7659C77.6564 76.7296 78.0182 76.6896 78.3746 76.6441C78.4376 76.6359 78.5015 76.6296 78.5645 76.6214C78.9767 76.5677 79.3817 76.5077 79.7822 76.4423C79.8605 76.4296 79.9379 76.4159 80.0153 76.4032C80.3654 76.3441 80.7092 76.2814 81.0467 76.2141C81.1079 76.2023 81.17 76.1914 81.2312 76.1787C81.6236 76.0987 82.0079 76.0132 82.3841 75.9232C82.4291 75.9123 82.4723 75.9014 82.5164 75.8905C82.8602 75.8068 83.1959 75.7187 83.5253 75.6259C83.5775 75.6114 83.6288 75.5977 83.681 75.5832C84.4154 75.3732 85.1156 75.1414 85.7762 74.8914C85.8131 74.8777 85.8482 74.8641 85.8851 74.8505C86.5502 74.595 87.1757 74.3196 87.7553 74.0259C87.7778 74.0141 87.7994 74.0032 87.8219 73.9923C88.4069 73.6932 88.9469 73.3768 89.4356 73.0432C89.4446 73.0368 89.4545 73.0296 89.4635 73.0232C89.9576 72.6841 90.3995 72.3287 90.7838 71.9587C90.7847 71.9577 90.7856 71.9577 90.7865 71.9568V76.0859V76.0868C90.7856 77.8614 88.5788 79.7414 84.8654 81.0923C81.8684 82.1359 78.0848 82.8014 74.3543 82.9559C73.808 82.9759 73.2563 82.9914 72.6902 82.9914C71.8874 82.9914 71.0765 82.9668 70.2656 82.9177C69.2855 82.8596 68.3054 82.7659 67.3406 82.6405C60.5888 81.7641 54.5903 79.3123 54.5903 76.085L54.5894 71.955ZM54.5894 79.7687C54.5903 79.7696 54.5912 79.7705 54.5921 79.7714C54.9764 80.1414 55.4174 80.4968 55.9115 80.8359C55.9214 80.8423 55.9313 80.8496 55.9412 80.8559C56.4299 81.1887 56.9699 81.5068 57.5558 81.8059C57.5774 81.8168 57.599 81.8268 57.6206 81.8387C58.2011 82.1314 58.8257 82.4068 59.4917 82.6632C59.5286 82.6777 59.5655 82.6905 59.6024 82.705C59.9309 82.8296 60.2657 82.9505 60.6131 83.065C60.614 83.065 60.6149 83.0659 60.6158 83.0659C60.9668 83.1814 61.3277 83.2914 61.6967 83.3968C61.748 83.4123 61.8002 83.425 61.8524 83.4405C62.1827 83.5332 62.5184 83.6205 62.8622 83.705C62.9063 83.7159 62.9504 83.7268 62.9945 83.7377C63.3707 83.8287 63.755 83.9123 64.1465 83.9923C64.2095 84.005 64.2734 84.0168 64.3364 84.0296C64.673 84.0959 65.015 84.1586 65.3624 84.2168C65.4407 84.2305 65.519 84.2441 65.5982 84.2568C65.9969 84.3214 66.4028 84.3823 66.8141 84.4359C66.878 84.4441 66.9428 84.4514 67.0058 84.4587C67.3622 84.5041 67.7222 84.5441 68.0858 84.5805C68.1875 84.5914 68.2883 84.6005 68.3909 84.6105C68.813 84.6496 69.2387 84.685 69.6707 84.7123C69.7193 84.715 69.7688 84.7177 69.8183 84.7205C70.2071 84.7441 70.5995 84.7623 70.9955 84.7768C71.1116 84.7805 71.2277 84.785 71.3438 84.7877C71.7884 84.8005 72.2366 84.8087 72.6893 84.8087C73.142 84.8087 73.5893 84.7996 74.0348 84.7877C74.1509 84.785 74.267 84.7805 74.3822 84.7768C74.7782 84.7623 75.1724 84.745 75.5612 84.7205C75.6098 84.7177 75.6584 84.715 75.707 84.7123C76.1399 84.685 76.5665 84.6496 76.9886 84.6105C77.0894 84.6014 77.1893 84.5914 77.2901 84.5814C77.6564 84.5441 78.0182 84.5032 78.3764 84.4587C78.4376 84.4505 78.5015 84.4432 78.5627 84.4359C78.9758 84.3814 79.3817 84.3214 79.7822 84.2568C79.8587 84.2441 79.9343 84.2314 80.0117 84.2177C80.3618 84.1596 80.7065 84.095 81.0467 84.0287C81.107 84.0159 81.1682 84.005 81.2285 83.9932C81.6218 83.9123 82.0079 83.8268 82.3859 83.7368C82.4264 83.7268 82.4669 83.7168 82.5074 83.7068C82.8548 83.6223 83.195 83.5332 83.5289 83.4396C83.5784 83.425 83.6279 83.4123 83.6783 83.3977C84.4145 83.1868 85.1156 82.955 85.7771 82.7041C85.8122 82.6905 85.8473 82.6777 85.8824 82.6641C86.5493 82.4077 87.1757 82.1314 87.7571 81.8377C87.7769 81.8268 87.7985 81.8177 87.8192 81.8068C88.4051 81.5068 88.946 81.1896 89.4347 80.8559C89.4446 80.8487 89.4536 80.8423 89.4626 80.8368C89.9567 80.4977 90.3977 80.1423 90.7829 79.7723C90.7829 79.7714 90.7847 79.7705 90.7856 79.7696V83.9005C90.7856 83.9959 90.7586 84.0932 90.7451 84.1896C86.0336 85.4014 82.6208 87.4405 81.476 89.8859C78.9317 90.4568 75.9653 90.8023 72.6893 90.8023C64.1285 90.8023 54.5894 87.9668 54.5894 83.9005V79.7687ZM54.5894 87.5805C54.9773 87.9541 55.4228 88.3132 55.9214 88.655C55.925 88.6568 55.9277 88.6596 55.9313 88.6623C56.4164 88.9932 56.9501 89.3087 57.5306 89.605C57.0095 89.5877 56.4848 89.5768 55.9529 89.5768C55.493 89.5768 55.0394 89.5859 54.5885 89.5977V87.5805H54.5894ZM55.9538 91.395C66.6188 91.395 74.0501 95.0332 74.0501 98.2986C74.0501 101.633 66.7781 105.204 55.9538 105.204C45.1277 105.204 37.8548 101.633 37.8548 98.2986C37.8548 94.2286 47.393 91.395 55.9538 91.395ZM55.9538 113.014C47.393 113.014 37.8548 110.179 37.8548 106.112V101.98C40.9679 104.982 47.8151 107.021 55.9538 107.021C64.0907 107.021 70.9379 104.982 74.0501 101.98V106.112C74.0501 110.179 64.5128 113.014 55.9538 113.014ZM75.8501 106.112V100.325C77.687 100.201 79.4312 99.9705 81.0548 99.6486V105.552C79.3898 105.9 77.6231 106.15 75.8402 106.288C75.8429 106.229 75.8501 106.171 75.8501 106.112ZM119.038 107.32C119.038 111.388 109.505 114.223 100.948 114.223C90.125 114.223 82.8548 110.652 82.8548 107.32V103.198C85.967 106.193 92.8124 108.229 100.948 108.229C109.083 108.229 115.926 106.193 119.038 103.199V107.32Z"
        fill="#02073E" />
</svg>